<svg xmlns="http://www.w3.org/2000/svg" xmlns:xlink="http://www.w3.org/1999/xlink" width="1920" zoomAndPan="magnify" viewBox="0 0 1440 809.999993" height="1080" preserveAspectRatio="xMidYMid meet" version="1.2"><defs><clipPath id="19af29c77a"><path d="M 74 620 L 193 620 L 193 740 L 74 740 Z M 74 620 "/></clipPath><clipPath id="c62c4597cc"><path d="M 49.535156 702.042969 L 113.59375 593.542969 L 218.867188 655.695312 L 154.804688 764.195312 Z M 49.535156 702.042969 "/></clipPath><clipPath id="d61d674875"><path d="M 49.535156 702.042969 L 113.59375 593.542969 L 218.867188 655.695312 L 154.804688 764.195312 Z M 49.535156 702.042969 "/></clipPath><clipPath id="a7dfcebb0d"><path d="M 75 625 L 111 625 L 111 676 L 75 676 Z M 75 625 "/></clipPath><clipPath id="9814527899"><path d="M 49.535156 702.042969 L 113.59375 593.542969 L 218.867188 655.695312 L 154.804688 764.195312 Z M 49.535156 702.042969 "/></clipPath><clipPath id="89c187a08d"><path d="M 49.535156 702.042969 L 113.59375 593.542969 L 218.867188 655.695312 L 154.804688 764.195312 Z M 49.535156 702.042969 "/></clipPath><clipPath id="19b73f30fa"><path d="M 80 685 L 131 685 L 131 739 L 80 739 Z M 80 685 "/></clipPath><clipPath id="762b90ba78"><path d="M 49.535156 702.042969 L 113.59375 593.542969 L 218.867188 655.695312 L 154.804688 764.195312 Z M 49.535156 702.042969 "/></clipPath><clipPath id="421fa53e4f"><path d="M 49.535156 702.042969 L 113.59375 593.542969 L 218.867188 655.695312 L 154.804688 764.195312 Z M 49.535156 702.042969 "/></clipPath><clipPath id="c0e24157fa"><path d="M 100 640 L 193 640 L 193 700 L 100 700 Z M 100 640 "/></clipPath><clipPath id="2dff7a4715"><path d="M 49.535156 702.042969 L 113.59375 593.542969 L 218.867188 655.695312 L 154.804688 764.195312 Z M 49.535156 702.042969 "/></clipPath><clipPath id="be091c931e"><path d="M 49.535156 702.042969 L 113.59375 593.542969 L 218.867188 655.695312 L 154.804688 764.195312 Z M 49.535156 702.042969 "/></clipPath><clipPath id="ca73183b5a"><path d="M 87 623 L 187 623 L 187 689 L 87 689 Z M 87 623 "/></clipPath><clipPath id="0ab958325b"><path d="M 49.535156 702.042969 L 113.59375 593.542969 L 218.867188 655.695312 L 154.804688 764.195312 Z M 49.535156 702.042969 "/></clipPath><clipPath id="88d92522b1"><path d="M 49.535156 702.042969 L 113.59375 593.542969 L 218.867188 655.695312 L 154.804688 764.195312 Z M 49.535156 702.042969 "/></clipPath><clipPath id="33098f1ade"><path d="M 1251 39 L 1347 39 L 1347 230 L 1251 230 Z M 1251 39 "/></clipPath><clipPath id="e3bbefd78b"><path d="M 1137.398438 81.628906 L 1319.0625 26.828125 L 1394.875 278.140625 L 1213.210938 332.945312 Z M 1137.398438 81.628906 "/></clipPath><clipPath id="7e95f0602c"><path d="M 1137.398438 81.628906 L 1319.0625 26.828125 L 1394.875 278.140625 L 1213.210938 332.945312 Z M 1137.398438 81.628906 "/></clipPath><clipPath id="cfd53c339c"><path d="M 1167 124 L 1300 124 L 1300 298 L 1167 298 Z M 1167 124 "/></clipPath><clipPath id="1e96c9ef5a"><path d="M 1137.398438 81.628906 L 1319.0625 26.828125 L 1394.875 278.140625 L 1213.210938 332.945312 Z M 1137.398438 81.628906 "/></clipPath><clipPath id="a7c6ca9bdb"><path d="M 1137.398438 81.628906 L 1319.0625 26.828125 L 1394.875 278.140625 L 1213.210938 332.945312 Z M 1137.398438 81.628906 "/></clipPath><clipPath id="9e68d736e9"><path d="M 1262 52 L 1340 52 L 1340 142 L 1262 142 Z M 1262 52 "/></clipPath><clipPath id="9e0dd3c7de"><path d="M 1137.398438 81.628906 L 1319.0625 26.828125 L 1394.875 278.140625 L 1213.210938 332.945312 Z M 1137.398438 81.628906 "/></clipPath><clipPath id="10a25e52b6"><path d="M 1137.398438 81.628906 L 1319.0625 26.828125 L 1394.875 278.140625 L 1213.210938 332.945312 Z M 1137.398438 81.628906 "/></clipPath><clipPath id="a5ee581cf9"><path d="M 1189 139 L 1266 139 L 1266 239 L 1189 239 Z M 1189 139 "/></clipPath><clipPath id="e75503a02b"><path d="M 1137.398438 81.628906 L 1319.0625 26.828125 L 1394.875 278.140625 L 1213.210938 332.945312 Z M 1137.398438 81.628906 "/></clipPath><clipPath id="b0ad450284"><path d="M 1137.398438 81.628906 L 1319.0625 26.828125 L 1394.875 278.140625 L 1213.210938 332.945312 Z M 1137.398438 81.628906 "/></clipPath></defs><g id="85894c2cb1"><g clip-rule="nonzero" clip-path="url(#19af29c77a)"><g clip-rule="nonzero" clip-path="url(#c62c4597cc)"><g clip-rule="nonzero" clip-path="url(#d61d674875)"><path style=" stroke:none;fill-rule:nonzero;fill:#c1ff72;fill-opacity:1;" d="M 178.441406 641.550781 C 180.746094 644.261719 182.839844 647.207031 184.683594 650.394531 C 193.316406 665.332031 194.679688 682.464844 189.878906 697.730469 C 185.605469 711.332031 176.410156 723.433594 163.082031 731.136719 C 152.777344 737.09375 141.414062 739.585938 130.355469 738.976562 L 130.34375 738.984375 C 111.085938 737.921875 92.722656 727.480469 82.351562 709.53125 C 81.609375 708.246094 80.929688 706.949219 80.28125 705.636719 C 74.199219 693.058594 72.980469 679.222656 75.988281 666.421875 C 79.597656 651.121094 89.253906 637.285156 103.941406 628.796875 C 106.023438 627.597656 108.144531 626.535156 110.300781 625.609375 C 134.117188 615.40625 161.804688 622.050781 178.441406 641.550781 Z M 178.441406 641.550781 "/></g></g></g><g clip-rule="nonzero" clip-path="url(#a7dfcebb0d)"><g clip-rule="nonzero" clip-path="url(#9814527899)"><g clip-rule="nonzero" clip-path="url(#89c187a08d)"><path style=" stroke:none;fill-rule:nonzero;fill:#9d7ad9;fill-opacity:1;" d="M 110.300781 625.613281 C 106.84375 629.285156 103.730469 633.257812 101.078125 637.566406 C 95.265625 647.007812 91.882812 658.164062 92.363281 669.179688 C 90.335938 670.324219 88.742188 672.472656 87.992188 675.105469 C 83.644531 672.894531 79.429688 669.527344 75.988281 666.425781 C 79.597656 651.121094 89.253906 637.285156 103.941406 628.796875 C 106.023438 627.59375 108.144531 626.539062 110.300781 625.613281 Z M 110.300781 625.613281 "/></g></g></g><g clip-rule="nonzero" clip-path="url(#19b73f30fa)"><g clip-rule="nonzero" clip-path="url(#762b90ba78)"><g clip-rule="nonzero" clip-path="url(#421fa53e4f)"><path style=" stroke:none;fill-rule:nonzero;fill:#9d7ad9;fill-opacity:1;" d="M 95.8125 688.882812 C 98.484375 700.558594 103.71875 711.636719 111.0625 721.082031 C 116.46875 728.027344 123.011719 734.089844 130.347656 738.988281 C 111.089844 737.925781 92.726562 727.484375 82.355469 709.535156 C 81.613281 708.25 80.929688 706.953125 80.285156 705.640625 C 81.582031 698.113281 84.605469 690.96875 89.410156 685.109375 C 90.921875 687.417969 93.230469 688.882812 95.8125 688.882812 Z M 95.8125 688.882812 "/></g></g></g><g clip-rule="nonzero" clip-path="url(#c0e24157fa)"><g clip-rule="nonzero" clip-path="url(#2dff7a4715)"><g clip-rule="nonzero" clip-path="url(#be091c931e)"><path style=" stroke:none;fill-rule:nonzero;fill:#9d7ad9;fill-opacity:1;" d="M 178.441406 641.550781 C 180.746094 644.261719 182.839844 647.207031 184.683594 650.394531 C 193.316406 665.332031 194.679688 682.464844 189.878906 697.730469 C 186.863281 698.304688 183.828125 698.71875 180.769531 698.953125 C 168.566406 699.871094 156.457031 697.832031 144.574219 695.507812 C 130.082031 692.683594 115.8125 689.535156 103.476562 682.542969 C 103.882812 681.316406 104.101562 679.960938 104.109375 678.550781 C 104.105469 675.136719 102.773438 672.109375 100.714844 670.234375 C 107.292969 663.6875 115.167969 658.371094 123.347656 653.824219 C 139.722656 644.738281 158.59375 638.347656 176.738281 641.25 C 177.304688 641.34375 177.878906 641.449219 178.441406 641.550781 Z M 178.441406 641.550781 "/></g></g></g><g clip-rule="nonzero" clip-path="url(#ca73183b5a)"><g clip-rule="nonzero" clip-path="url(#0ab958325b)"><g clip-rule="nonzero" clip-path="url(#88d92522b1)"><path style=" stroke:none;fill-rule:nonzero;fill:#ffffff;fill-opacity:1;" d="M 95.808594 668.246094 C 97.636719 668.25 99.34375 668.980469 100.710938 670.238281 C 102.773438 672.113281 104.101562 675.140625 104.105469 678.550781 C 104.101562 679.964844 103.878906 681.320312 103.46875 682.542969 C 102.21875 686.265625 99.253906 688.882812 95.808594 688.882812 C 93.226562 688.878906 90.917969 687.414062 89.402344 685.109375 C 88.21875 683.324219 87.5 681.046875 87.503906 678.5625 C 87.5 677.351562 87.664062 676.183594 87.988281 675.105469 C 88.734375 672.46875 90.328125 670.320312 92.355469 669.175781 C 93.410156 668.585938 94.570312 668.253906 95.808594 668.246094 Z M 111.484375 628.382812 C 109.4375 629.261719 107.425781 630.265625 105.449219 631.40625 C 101.011719 633.972656 97.058594 637.050781 93.621094 640.53125 C 96 638.738281 98.582031 637.121094 101.355469 635.695312 C 103.441406 634.621094 105.582031 633.691406 107.761719 632.894531 C 131.851562 624.085938 160.769531 631.953125 178.914062 651.851562 C 181.429688 654.617188 183.734375 657.601562 185.796875 660.8125 C 186.136719 661.34375 186.46875 661.878906 186.792969 662.417969 C 185.609375 658.828125 184.042969 655.308594 182.074219 651.90625 C 180.324219 648.882812 178.339844 646.085938 176.148438 643.515625 C 160.363281 625.003906 134.085938 618.699219 111.484375 628.382812 Z M 111.484375 628.382812 "/></g></g></g><g clip-rule="nonzero" clip-path="url(#33098f1ade)"><g clip-rule="nonzero" clip-path="url(#e3bbefd78b)"><g clip-rule="nonzero" clip-path="url(#7e95f0602c)"><path style=" stroke:none;fill-rule:nonzero;fill:#c1ff72;fill-opacity:1;" d="M 1311.398438 229.964844 C 1281.457031 230.671875 1280.617188 192.246094 1278.367188 173.730469 C 1274.578125 142.597656 1250.300781 140.109375 1251.417969 84.394531 C 1251.675781 71.480469 1254.46875 46.3125 1285.929688 40.042969 C 1314.585938 34.332031 1328.351562 58.976562 1338.910156 98.191406 C 1347.402344 129.707031 1357.003906 228.898438 1311.398438 229.964844 "/></g></g></g><g clip-rule="nonzero" clip-path="url(#cfd53c339c)"><g clip-rule="nonzero" clip-path="url(#1e96c9ef5a)"><g clip-rule="nonzero" clip-path="url(#a7c6ca9bdb)"><path style=" stroke:none;fill-rule:nonzero;fill:#c1ff72;fill-opacity:1;" d="M 1290.117188 291.210938 C 1313.167969 272.085938 1288.578125 242.550781 1278.117188 227.097656 C 1260.535156 201.132812 1277.222656 183.316406 1239.804688 142.023438 C 1231.128906 132.449219 1212.5 115.296875 1184.648438 131.222656 C 1159.285156 145.722656 1165.078125 173.347656 1182.855469 209.867188 C 1197.140625 239.214844 1255.011719 320.339844 1290.117188 291.210938 "/></g></g></g><g clip-rule="nonzero" clip-path="url(#9e68d736e9)"><g clip-rule="nonzero" clip-path="url(#9e0dd3c7de)"><g clip-rule="nonzero" clip-path="url(#10a25e52b6)"><path style=" stroke:none;fill-rule:nonzero;fill:#9d7ad9;fill-opacity:1;" d="M 1335.242188 136.785156 C 1332.503906 137.136719 1330.003906 135.203125 1329.65625 132.460938 C 1327.753906 118.046875 1324.214844 102.199219 1313.164062 91.839844 C 1306.742188 85.820312 1298.355469 82.773438 1289.800781 81.261719 C 1278.164062 87.488281 1272.207031 99.242188 1272.261719 112.152344 C 1272.292969 120.09375 1274.320312 127.804688 1277.007812 135.230469 C 1277.949219 137.824219 1276.605469 140.683594 1274.011719 141.628906 C 1271.417969 142.566406 1268.554688 141.222656 1267.617188 138.628906 C 1262.121094 123.371094 1259.421875 105.613281 1267.21875 90.574219 C 1271.195312 82.910156 1276.125 78.558594 1282.980469 73.6875 C 1281.890625 68.367188 1281.425781 62.9375 1281.046875 57.53125 C 1280.886719 55.019531 1282.617188 52.777344 1285.09375 52.304688 C 1287.804688 51.785156 1290.421875 53.5625 1290.9375 56.273438 C 1291.886719 61.460938 1292.929688 66.640625 1293.714844 71.859375 C 1307.972656 74.53125 1320.09375 81.882812 1327.898438 94.15625 C 1334.941406 105.238281 1337.917969 118.332031 1339.566406 131.199219 C 1339.917969 133.9375 1337.976562 136.4375 1335.242188 136.785156 "/></g></g></g><g clip-rule="nonzero" clip-path="url(#a5ee581cf9)"><g clip-rule="nonzero" clip-path="url(#e75503a02b)"><g clip-rule="nonzero" clip-path="url(#b0ad450284)"><path style=" stroke:none;fill-rule:nonzero;fill:#9d7ad9;fill-opacity:1;" d="M 1203.203125 235.710938 C 1194.707031 220.96875 1187.609375 203.753906 1190.6875 186.414062 C 1192.421875 176.660156 1197.476562 168.121094 1203.921875 160.722656 C 1201.429688 156.070312 1199.074219 151.347656 1196.722656 146.625 C 1195.5 144.148438 1196.511719 141.15625 1198.984375 139.933594 C 1201.242188 138.8125 1203.980469 139.550781 1205.371094 141.652344 C 1208.253906 146.234375 1211.355469 150.746094 1213.582031 155.695312 C 1228.300781 154.199219 1242.304688 160.515625 1251.660156 171.761719 C 1258.058594 179.460938 1262.097656 188.699219 1265.042969 198.191406 C 1265.859375 200.824219 1264.386719 203.621094 1261.75 204.4375 C 1259.113281 205.257812 1256.316406 203.78125 1255.5 201.148438 C 1249.53125 181.210938 1236.105469 162.246094 1212.707031 165.859375 C 1204.683594 174.117188 1199.539062 184.75 1199.972656 196.355469 C 1200.4375 208.648438 1205.839844 220.253906 1211.867188 230.734375 C 1213.242188 233.125 1212.417969 236.179688 1210.023438 237.554688 C 1207.628906 238.925781 1204.578125 238.101562 1203.203125 235.710938 "/></g></g></g><g style="fill:#c1ff72;fill-opacity:1;"><g transform="translate(258.596595, 137.212433)"><path style="stroke:none" d="M 84 0 L 73.875 -31.375 L 25.734375 -31.375 L 15.609375 0 L 3.15625 0 L 41.828125 -117.859375 L 57.765625 -117.859375 L 96.453125 0 Z M 49.796875 -106.40625 L 29.375 -43 L 70.21875 -43 Z M 49.796875 -106.40625 "/></g></g><g style="fill:#c1ff72;fill-opacity:1;"><g transform="translate(351.88624, 137.212433)"><path style="stroke:none" d="M 87.15625 0 L 13.109375 0 L 13.109375 -11.625 L 47.140625 -11.625 L 47.140625 -102.421875 L 21.75 -75.703125 L 13.609375 -83 L 47.140625 -117.859375 L 59.59375 -117.859375 L 59.59375 -11.625 L 87.15625 -11.625 Z M 87.15625 0 "/></g></g><g style="fill:#c1ff72;fill-opacity:1;"><g transform="translate(445.175885, 137.212433)"><path style="stroke:none" d=""/></g></g><g style="fill:#c1ff72;fill-opacity:1;"><g transform="translate(538.465531, 137.212433)"><path style="stroke:none" d="M 26.71875 -1 L 14.28125 -1 L 14.28125 -117.859375 L 60.421875 -117.859375 C 70.929688 -117.859375 79.035156 -115.117188 84.734375 -109.640625 C 90.441406 -104.160156 93.296875 -96.054688 93.296875 -85.328125 C 93.296875 -75.140625 90.441406 -67.28125 84.734375 -61.75 C 79.035156 -56.21875 70.929688 -53.453125 60.421875 -53.453125 L 26.71875 -53.453125 Z M 26.71875 -106.234375 L 26.71875 -65.078125 L 60.421875 -65.078125 C 67.171875 -64.960938 72.257812 -66.675781 75.6875 -70.21875 C 79.125 -73.757812 80.84375 -78.796875 80.84375 -85.328125 C 80.84375 -92.296875 79.070312 -97.519531 75.53125 -101 C 71.988281 -104.488281 66.953125 -106.234375 60.421875 -106.234375 Z M 26.71875 -106.234375 "/></g></g><g style="fill:#c1ff72;fill-opacity:1;"><g transform="translate(631.755176, 137.212433)"><path style="stroke:none" d="M 5.140625 -58.9375 C 5.140625 -78.738281 8.875 -93.953125 16.34375 -104.578125 C 23.820312 -115.203125 34.476562 -120.570312 48.3125 -120.6875 C 62.144531 -120.789062 72.765625 -115.503906 80.171875 -104.828125 C 87.585938 -94.148438 91.296875 -78.851562 91.296875 -58.9375 C 91.296875 -39.007812 87.585938 -23.707031 80.171875 -13.03125 C 72.765625 -2.351562 62.144531 2.929688 48.3125 2.828125 C 34.476562 2.710938 23.820312 -2.679688 16.34375 -13.359375 C 8.875 -24.035156 5.140625 -39.226562 5.140625 -58.9375 Z M 78.84375 -58.9375 C 78.84375 -75.09375 76.210938 -87.484375 70.953125 -96.109375 C 65.703125 -104.742188 58.15625 -109.0625 48.3125 -109.0625 C 38.457031 -109.0625 30.875 -104.742188 25.5625 -96.109375 C 20.25 -87.484375 17.59375 -75.09375 17.59375 -58.9375 C 17.59375 -42.882812 20.25 -30.515625 25.5625 -21.828125 C 30.875 -13.140625 38.457031 -8.796875 48.3125 -8.796875 C 58.15625 -8.796875 65.703125 -13.140625 70.953125 -21.828125 C 76.210938 -30.515625 78.84375 -42.882812 78.84375 -58.9375 Z M 78.84375 -58.9375 "/></g></g><g style="fill:#c1ff72;fill-opacity:1;"><g transform="translate(725.044844, 137.212433)"><path style="stroke:none" d="M 5.140625 -58.9375 C 5.140625 -78.738281 8.875 -93.953125 16.34375 -104.578125 C 23.820312 -115.203125 34.476562 -120.570312 48.3125 -120.6875 C 62.144531 -120.789062 72.765625 -115.503906 80.171875 -104.828125 C 87.585938 -94.148438 91.296875 -78.851562 91.296875 -58.9375 C 91.296875 -39.007812 87.585938 -23.707031 80.171875 -13.03125 C 72.765625 -2.351562 62.144531 2.929688 48.3125 2.828125 C 34.476562 2.710938 23.820312 -2.679688 16.34375 -13.359375 C 8.875 -24.035156 5.140625 -39.226562 5.140625 -58.9375 Z M 78.84375 -58.9375 C 78.84375 -75.09375 76.210938 -87.484375 70.953125 -96.109375 C 65.703125 -104.742188 58.15625 -109.0625 48.3125 -109.0625 C 38.457031 -109.0625 30.875 -104.742188 25.5625 -96.109375 C 20.25 -87.484375 17.59375 -75.09375 17.59375 -58.9375 C 17.59375 -42.882812 20.25 -30.515625 25.5625 -21.828125 C 30.875 -13.140625 38.457031 -8.796875 48.3125 -8.796875 C 58.15625 -8.796875 65.703125 -13.140625 70.953125 -21.828125 C 76.210938 -30.515625 78.84375 -42.882812 78.84375 -58.9375 Z M 78.84375 -58.9375 "/></g></g><g style="fill:#c1ff72;fill-opacity:1;"><g transform="translate(818.334466, 137.212433)"><path style="stroke:none" d="M 90.296875 0 L 18.421875 0 L 18.265625 -117.859375 L 30.703125 -117.859375 L 30.703125 -11.625 L 90.296875 -11.625 Z M 90.296875 0 "/></g></g><g style="fill:#c1ff72;fill-opacity:1;"><g transform="translate(911.624088, 137.212433)"><path style="stroke:none" d="M 49.296875 1.5 C 40.773438 1.5 33.414062 -0.210938 27.21875 -3.640625 C 21.019531 -7.078125 16.234375 -11.945312 12.859375 -18.25 C 9.484375 -24.5625 7.796875 -31.976562 7.796875 -40.5 L 20.25 -40.5 C 20.25 -34.75 21.492188 -29.601562 23.984375 -25.0625 C 26.472656 -20.53125 29.875 -16.960938 34.1875 -14.359375 C 38.507812 -11.753906 43.492188 -10.34375 49.140625 -10.125 C 54.785156 -10.007812 59.816406 -10.945312 64.234375 -12.9375 C 68.660156 -14.9375 72.09375 -17.734375 74.53125 -21.328125 C 76.96875 -24.921875 78.019531 -28.988281 77.6875 -33.53125 C 77.351562 -42.601562 70.050781 -49.6875 55.78125 -54.78125 L 38.1875 -61.09375 C 29.21875 -64.300781 22.601562 -67.976562 18.34375 -72.125 C 14.082031 -76.28125 11.726562 -81.234375 11.28125 -86.984375 C 10.84375 -93.515625 12.203125 -99.351562 15.359375 -104.5 C 18.515625 -109.644531 23.023438 -113.679688 28.890625 -116.609375 C 34.753906 -119.546875 41.390625 -120.90625 48.796875 -120.6875 C 60.304688 -120.351562 69.628906 -116.945312 76.765625 -110.46875 C 83.910156 -104 87.757812 -95.394531 88.3125 -84.65625 L 75.859375 -84.65625 C 75.421875 -91.632812 72.65625 -97.414062 67.5625 -102 C 62.46875 -106.59375 56.160156 -108.945312 48.640625 -109.0625 C 43.660156 -109.28125 39.257812 -108.503906 35.4375 -106.734375 C 31.625 -104.960938 28.664062 -102.441406 26.5625 -99.171875 C 24.457031 -95.910156 23.515625 -92.234375 23.734375 -88.140625 C 23.953125 -85.046875 25.609375 -82.304688 28.703125 -79.921875 C 31.804688 -77.546875 36.625 -75.085938 43.15625 -72.546875 L 61.25 -65.734375 C 79.625 -58.765625 89.144531 -48.640625 89.8125 -35.359375 C 90.132812 -28.492188 88.523438 -22.265625 84.984375 -16.671875 C 81.453125 -11.085938 76.585938 -6.660156 70.390625 -3.390625 C 64.191406 -0.128906 57.160156 1.5 49.296875 1.5 Z M 49.296875 1.5 "/></g></g><g style="fill:#c1ff72;fill-opacity:1;"><g transform="translate(9.784248, 57.520996)"><path style="stroke:none" d="M 7.25 -0.265625 L 3.875 -0.265625 L 3.875 -32 L 16.40625 -32 C 19.257812 -32 21.457031 -31.253906 23 -29.765625 C 24.550781 -28.273438 25.328125 -26.070312 25.328125 -23.15625 C 25.328125 -20.394531 24.550781 -18.265625 23 -16.765625 C 21.457031 -15.265625 19.257812 -14.515625 16.40625 -14.515625 L 7.25 -14.515625 Z M 7.25 -28.84375 L 7.25 -17.671875 L 16.40625 -17.671875 C 18.238281 -17.640625 19.617188 -18.101562 20.546875 -19.0625 C 21.484375 -20.019531 21.953125 -21.382812 21.953125 -23.15625 C 21.953125 -25.050781 21.46875 -26.472656 20.5 -27.421875 C 19.539062 -28.367188 18.175781 -28.84375 16.40625 -28.84375 Z M 7.25 -28.84375 "/></g></g><g style="fill:#c1ff72;fill-opacity:1;"><g transform="translate(35.111105, 57.520996)"><path style="stroke:none" d="M 25.328125 0 L 21 0 L 12.984375 -14.515625 L 6.84375 -14.515625 L 6.84375 0 L 3.46875 0 L 3.46875 -32 L 15.546875 -32 C 18.398438 -32 20.597656 -31.238281 22.140625 -29.71875 C 23.691406 -28.195312 24.46875 -26.007812 24.46875 -23.15625 C 24.46875 -20.695312 23.84375 -18.726562 22.59375 -17.25 C 21.351562 -15.78125 19.578125 -14.894531 17.265625 -14.59375 Z M 6.84375 -28.84375 L 6.84375 -17.671875 L 15.546875 -17.671875 C 17.378906 -17.671875 18.773438 -18.140625 19.734375 -19.078125 C 20.691406 -20.023438 21.144531 -21.382812 21.09375 -23.15625 C 21.09375 -24.988281 20.609375 -26.394531 19.640625 -27.375 C 18.679688 -28.351562 17.316406 -28.84375 15.546875 -28.84375 Z M 6.84375 -28.84375 "/></g></g><g style="fill:#c1ff72;fill-opacity:1;"><g transform="translate(60.437961, 57.520996)"><path style="stroke:none" d="M 1.390625 -16 C 1.390625 -21.375 2.40625 -25.503906 4.4375 -28.390625 C 6.46875 -31.273438 9.359375 -32.734375 13.109375 -32.765625 C 16.867188 -32.796875 19.753906 -31.359375 21.765625 -28.453125 C 23.773438 -25.554688 24.78125 -21.40625 24.78125 -16 C 24.78125 -10.59375 23.773438 -6.4375 21.765625 -3.53125 C 19.753906 -0.632812 16.867188 0.796875 13.109375 0.765625 C 9.359375 0.734375 6.46875 -0.726562 4.4375 -3.625 C 2.40625 -6.519531 1.390625 -10.644531 1.390625 -16 Z M 21.40625 -16 C 21.40625 -20.382812 20.691406 -23.75 19.265625 -26.09375 C 17.835938 -28.4375 15.785156 -29.609375 13.109375 -29.609375 C 10.441406 -29.609375 8.382812 -28.4375 6.9375 -26.09375 C 5.5 -23.75 4.78125 -20.382812 4.78125 -16 C 4.78125 -11.644531 5.5 -8.285156 6.9375 -5.921875 C 8.382812 -3.566406 10.441406 -2.390625 13.109375 -2.390625 C 15.785156 -2.390625 17.835938 -3.566406 19.265625 -5.921875 C 20.691406 -8.285156 21.40625 -11.644531 21.40625 -16 Z M 21.40625 -16 "/></g></g><g style="fill:#c1ff72;fill-opacity:1;"><g transform="translate(85.764818, 57.520996)"><path style="stroke:none" d="M 9.953125 -32 L 21.265625 -32 L 21.265625 -7.203125 C 21.265625 -4.472656 20.515625 -2.5 19.015625 -1.28125 C 17.515625 -0.0625 15.351562 0.546875 12.53125 0.546875 L 1.625 0.546875 L 1.625 -2.609375 L 11.890625 -2.609375 C 13.515625 -2.609375 14.753906 -2.78125 15.609375 -3.125 C 16.472656 -3.476562 17.066406 -4.019531 17.390625 -4.75 C 17.722656 -5.488281 17.890625 -6.457031 17.890625 -7.65625 L 17.890625 -28.84375 L 9.953125 -28.84375 Z M 9.953125 -32 "/></g></g><g style="fill:#c1ff72;fill-opacity:1;"><g transform="translate(111.091674, 57.520996)"><path style="stroke:none" d="M 4.09375 0 L 4.09375 -32 L 23.890625 -32 L 23.890625 -28.84375 L 7.484375 -28.84375 L 7.484375 -18.515625 L 23.109375 -18.515625 L 23.109375 -15.140625 L 7.484375 -15.140625 L 7.484375 -3.15625 L 23.890625 -3.15625 L 23.890625 0 Z M 4.09375 0 "/></g></g><g style="fill:#c1ff72;fill-opacity:1;"><g transform="translate(136.418531, 57.520996)"><path style="stroke:none" d="M 13.96875 -2.390625 C 17.90625 -2.390625 20.25 -5.078125 21 -10.453125 L 24.375 -10.453125 C 23.445312 -2.941406 19.976562 0.796875 13.96875 0.765625 C 10.21875 0.734375 7.316406 -0.734375 5.265625 -3.640625 C 3.222656 -6.554688 2.203125 -10.691406 2.203125 -16.046875 C 2.203125 -21.421875 3.207031 -25.5625 5.21875 -28.46875 C 7.238281 -31.382812 10.109375 -32.84375 13.828125 -32.84375 C 19.960938 -32.84375 23.523438 -29.085938 24.515625 -21.578125 L 21.140625 -21.578125 C 20.472656 -26.992188 17.992188 -29.703125 13.703125 -29.703125 C 11.171875 -29.703125 9.222656 -28.519531 7.859375 -26.15625 C 6.492188 -23.800781 5.8125 -20.429688 5.8125 -16.046875 C 5.8125 -11.691406 6.515625 -8.328125 7.921875 -5.953125 C 9.335938 -3.578125 11.351562 -2.390625 13.96875 -2.390625 Z M 13.96875 -2.390625 "/></g></g><g style="fill:#c1ff72;fill-opacity:1;"><g transform="translate(161.745387, 57.520996)"><path style="stroke:none" d="M 15.1875 0 L 11.53125 0 L 11.53125 -28.84375 L 1.171875 -28.84375 L 1.171875 -32 L 25.828125 -32 L 25.828125 -28.84375 L 15.1875 -28.84375 Z M 15.1875 0 "/></g></g><g style="fill:#c1ff72;fill-opacity:1;"><g transform="translate(187.072235, 57.520996)"><path style="stroke:none" d=""/></g></g><g style="fill:#c1ff72;fill-opacity:1;"><g transform="translate(212.399101, 57.520996)"><path style="stroke:none" d="M 8.203125 -3.375 L 24.28125 -3.375 L 24.28125 0 L 2.484375 0 L 2.484375 -2.4375 C 5.066406 -5.132812 7.335938 -7.441406 9.296875 -9.359375 C 11.265625 -11.285156 12.929688 -12.976562 14.296875 -14.4375 C 15.671875 -15.894531 16.765625 -17.222656 17.578125 -18.421875 C 18.390625 -19.628906 18.898438 -20.863281 19.109375 -22.125 C 19.378906 -23.539062 19.28125 -24.800781 18.8125 -25.90625 C 18.34375 -27.019531 17.613281 -27.890625 16.625 -28.515625 C 15.632812 -29.148438 14.445312 -29.4375 13.0625 -29.375 C 11.207031 -29.34375 9.726562 -28.796875 8.625 -27.734375 C 7.53125 -26.671875 6.984375 -25.253906 6.984375 -23.484375 L 3.609375 -23.484375 C 3.609375 -25.304688 4.003906 -26.910156 4.796875 -28.296875 C 5.597656 -29.679688 6.710938 -30.769531 8.140625 -31.5625 C 9.566406 -32.363281 11.207031 -32.765625 13.0625 -32.765625 C 15.226562 -32.765625 17.082031 -32.257812 18.625 -31.25 C 20.175781 -30.238281 21.3125 -28.890625 22.03125 -27.203125 C 22.75 -25.523438 22.914062 -23.640625 22.53125 -21.546875 C 22.289062 -20.273438 21.765625 -18.957031 20.953125 -17.59375 C 20.140625 -16.226562 19.15625 -14.851562 18 -13.46875 C 16.84375 -12.09375 15.640625 -10.765625 14.390625 -9.484375 C 13.148438 -8.210938 11.976562 -7.050781 10.875 -6 C 9.78125 -4.945312 8.890625 -4.070312 8.203125 -3.375 Z M 8.203125 -3.375 "/></g></g><g style="fill:#9d7ad9;fill-opacity:1;"><g transform="translate(555.716225, 764.999982)"><path style="stroke:none" d="M 35.703125 -31.25 C 39.171875 -30.632812 41.910156 -28.96875 43.921875 -26.25 C 45.941406 -23.53125 46.953125 -20.1875 46.953125 -16.21875 C 46.953125 -11.226562 45.21875 -7.273438 41.75 -4.359375 C 38.28125 -1.453125 33.546875 0 27.546875 0 L 6.546875 0 L 6.546875 -59.640625 L 25.78125 -59.640625 C 29.425781 -59.640625 32.617188 -58.992188 35.359375 -57.703125 C 38.109375 -56.421875 40.265625 -54.628906 41.828125 -52.328125 C 43.398438 -50.035156 44.1875 -47.378906 44.1875 -44.359375 C 44.1875 -41.109375 43.382812 -38.25 41.78125 -35.78125 C 40.1875 -33.320312 38.160156 -31.8125 35.703125 -31.25 Z M 12.859375 -53.59375 L 12.859375 -34.109375 L 26.96875 -34.109375 C 30.101562 -34.109375 32.675781 -34.960938 34.6875 -36.671875 C 36.707031 -38.378906 37.71875 -40.601562 37.71875 -43.34375 C 37.71875 -46.363281 36.707031 -48.828125 34.6875 -50.734375 C 32.675781 -52.640625 30.101562 -53.59375 26.96875 -53.59375 Z M 12.859375 -28.140625 L 12.859375 -5.875 L 28.8125 -5.875 C 32.445312 -5.875 35.328125 -6.867188 37.453125 -8.859375 C 39.585938 -10.847656 40.65625 -13.550781 40.65625 -16.96875 C 40.65625 -20.4375 39.503906 -23.164062 37.203125 -25.15625 C 34.910156 -27.144531 31.773438 -28.140625 27.796875 -28.140625 Z M 12.859375 -28.140625 "/></g></g><g style="fill:#9d7ad9;fill-opacity:1;"><g transform="translate(602.924222, 764.999982)"><path style="stroke:none" d="M 4.03125 -14.453125 L 4.109375 -42 L 4.109375 -59.640625 L 10.421875 -59.640625 L 10.328125 -15.375 C 10.328125 -12.457031 11.332031 -10.160156 13.34375 -8.484375 C 15.363281 -6.804688 18.082031 -5.96875 21.5 -5.96875 L 35.703125 -5.875 L 35.78125 -59.640625 L 42.078125 -59.640625 L 42 0 L 20.328125 0 C 17.140625 0 14.328125 -0.613281 11.890625 -1.84375 C 9.453125 -3.082031 7.53125 -4.789062 6.125 -6.96875 C 4.726562 -9.15625 4.03125 -11.648438 4.03125 -14.453125 Z M 4.03125 -14.453125 "/></g></g><g style="fill:#9d7ad9;fill-opacity:1;"><g transform="translate(650.13222, 764.999982)"><path style="stroke:none" d="M 45.4375 0 L 4.953125 0 L 4.953125 -5.875 L 21.75 -5.875 L 21.75 -53.765625 L 4.953125 -53.765625 L 4.953125 -59.640625 L 45.4375 -59.640625 L 45.4375 -53.765625 L 28.0625 -53.765625 L 28.0625 -5.875 L 45.4375 -5.875 Z M 45.4375 0 "/></g></g><g style="fill:#9d7ad9;fill-opacity:1;"><g transform="translate(697.340217, 764.999982)"><path style="stroke:none" d="M 45.703125 0 L 9.328125 0 L 9.234375 -59.640625 L 15.546875 -59.640625 L 15.546875 -5.875 L 45.703125 -5.875 Z M 45.703125 0 "/></g></g><g style="fill:#9d7ad9;fill-opacity:1;"><g transform="translate(744.548215, 764.999982)"><path style="stroke:none" d="M 28.3125 0 L 21.5 0 L 21.5 -53.765625 L 2.1875 -53.765625 L 2.1875 -59.640625 L 48.125 -59.640625 L 48.125 -53.765625 L 28.3125 -53.765625 Z M 28.3125 0 "/></g></g><g style="fill:#9d7ad9;fill-opacity:1;"><g transform="translate(838.96421, 764.999982)"><path style="stroke:none" d="M 14.609375 -29.8125 L 14.609375 0 L 8.3125 0 L 8.3125 -59.640625 L 44.515625 -59.640625 L 44.515625 -53.765625 L 14.609375 -53.765625 L 14.609375 -35.703125 L 43.09375 -35.703125 L 43.09375 -29.8125 Z M 14.609375 -29.8125 "/></g></g><g style="fill:#9d7ad9;fill-opacity:1;"><g transform="translate(886.172208, 764.999982)"><path style="stroke:none" d="M 47.203125 0 L 39.140625 0 L 24.1875 -27.046875 L 12.765625 -27.046875 L 12.765625 0 L 6.46875 0 L 6.46875 -59.640625 L 28.984375 -59.640625 C 34.296875 -59.640625 38.394531 -58.222656 41.28125 -55.390625 C 44.164062 -52.566406 45.609375 -48.492188 45.609375 -43.171875 C 45.609375 -38.578125 44.445312 -34.910156 42.125 -32.171875 C 39.800781 -29.429688 36.484375 -27.78125 32.171875 -27.21875 Z M 12.765625 -53.765625 L 12.765625 -32.921875 L 28.984375 -32.921875 C 32.398438 -32.921875 35.003906 -33.800781 36.796875 -35.5625 C 38.585938 -37.332031 39.425781 -39.867188 39.3125 -43.171875 C 39.3125 -46.585938 38.414062 -49.207031 36.625 -51.03125 C 34.832031 -52.851562 32.285156 -53.765625 28.984375 -53.765625 Z M 12.765625 -53.765625 "/></g></g><g style="fill:#9d7ad9;fill-opacity:1;"><g transform="translate(933.380206, 764.999982)"><path style="stroke:none" d="M 2.609375 -29.8125 C 2.609375 -39.84375 4.492188 -47.546875 8.265625 -52.921875 C 12.046875 -58.296875 17.4375 -61.007812 24.4375 -61.0625 C 31.4375 -61.125 36.8125 -58.453125 40.5625 -53.046875 C 44.320312 -47.640625 46.203125 -39.894531 46.203125 -29.8125 C 46.203125 -19.738281 44.320312 -12 40.5625 -6.59375 C 36.8125 -1.1875 31.4375 1.484375 24.4375 1.421875 C 17.4375 1.367188 12.046875 -1.359375 8.265625 -6.765625 C 4.492188 -12.171875 2.609375 -19.851562 2.609375 -29.8125 Z M 39.90625 -29.8125 C 39.90625 -37.988281 38.570312 -44.257812 35.90625 -48.625 C 33.25 -53 29.425781 -55.1875 24.4375 -55.1875 C 19.457031 -55.1875 15.625 -53 12.9375 -48.625 C 10.25 -44.257812 8.90625 -37.988281 8.90625 -29.8125 C 8.90625 -21.695312 10.25 -15.441406 12.9375 -11.046875 C 15.625 -6.648438 19.457031 -4.453125 24.4375 -4.453125 C 29.425781 -4.453125 33.25 -6.648438 35.90625 -11.046875 C 38.570312 -15.441406 39.90625 -21.695312 39.90625 -29.8125 Z M 39.90625 -29.8125 "/></g></g><g style="fill:#9d7ad9;fill-opacity:1;"><g transform="translate(980.588181, 764.999982)"><path style="stroke:none" d="M 4.953125 0 L 4.953125 -59.640625 L 45.359375 -59.640625 L 45.4375 0 L 39.140625 0 L 39.0625 -53.765625 L 28.3125 -53.765625 L 28.3125 0 L 22.015625 0 L 22.015625 -53.765625 L 11.25 -53.765625 L 11.25 0 Z M 4.953125 0 "/></g></g><g style="fill:#9d7ad9;fill-opacity:1;"><g transform="translate(1075.004222, 764.999982)"><path style="stroke:none" d="M 24.953125 0.75 C 20.640625 0.75 16.914062 -0.113281 13.78125 -1.84375 C 10.644531 -3.582031 8.222656 -6.046875 6.515625 -9.234375 C 4.804688 -12.429688 3.953125 -16.1875 3.953125 -20.5 L 10.25 -20.5 C 10.25 -17.582031 10.878906 -14.972656 12.140625 -12.671875 C 13.398438 -10.378906 15.117188 -8.578125 17.296875 -7.265625 C 19.484375 -5.953125 22.003906 -5.238281 24.859375 -5.125 C 27.710938 -5.070312 30.257812 -5.546875 32.5 -6.546875 C 34.75 -7.554688 36.488281 -8.972656 37.71875 -10.796875 C 38.945312 -12.617188 39.476562 -14.675781 39.3125 -16.96875 C 39.144531 -21.5625 35.445312 -25.144531 28.21875 -27.71875 L 19.3125 -30.90625 C 14.78125 -32.53125 11.4375 -34.390625 9.28125 -36.484375 C 7.125 -38.585938 5.9375 -41.097656 5.71875 -44.015625 C 5.488281 -47.316406 6.171875 -50.269531 7.765625 -52.875 C 9.359375 -55.476562 11.640625 -57.519531 14.609375 -59 C 17.578125 -60.488281 20.941406 -61.175781 24.703125 -61.0625 C 30.523438 -60.894531 35.238281 -59.171875 38.84375 -55.890625 C 42.457031 -52.617188 44.40625 -48.269531 44.6875 -42.84375 L 38.390625 -42.84375 C 38.160156 -46.363281 36.757812 -49.285156 34.1875 -51.609375 C 31.613281 -53.941406 28.421875 -55.132812 24.609375 -55.1875 C 22.085938 -55.300781 19.859375 -54.910156 17.921875 -54.015625 C 15.992188 -53.117188 14.5 -51.84375 13.4375 -50.1875 C 12.375 -48.539062 11.898438 -46.679688 12.015625 -44.609375 C 12.128906 -43.035156 12.96875 -41.644531 14.53125 -40.4375 C 16.101562 -39.238281 18.539062 -37.992188 21.84375 -36.703125 L 31 -33.265625 C 40.289062 -29.734375 45.101562 -24.609375 45.4375 -17.890625 C 45.613281 -14.421875 44.800781 -11.269531 43 -8.4375 C 41.207031 -5.613281 38.742188 -3.375 35.609375 -1.71875 C 32.472656 -0.0703125 28.921875 0.75 24.953125 0.75 Z M 24.953125 0.75 "/></g></g><g style="fill:#9d7ad9;fill-opacity:1;"><g transform="translate(1122.212198, 764.999982)"><path style="stroke:none" d="M 26.046875 -4.453125 C 33.378906 -4.453125 37.742188 -9.460938 39.140625 -19.484375 L 45.4375 -19.484375 C 43.707031 -5.484375 37.242188 1.484375 26.046875 1.421875 C 19.046875 1.367188 13.640625 -1.367188 9.828125 -6.796875 C 6.015625 -12.234375 4.109375 -19.9375 4.109375 -29.90625 C 4.109375 -39.925781 5.984375 -47.648438 9.734375 -53.078125 C 13.492188 -58.515625 18.84375 -61.234375 25.78125 -61.234375 C 37.207031 -61.234375 43.847656 -54.234375 45.703125 -40.234375 L 39.390625 -40.234375 C 38.160156 -50.316406 33.539062 -55.359375 25.53125 -55.359375 C 20.832031 -55.359375 17.207031 -53.160156 14.65625 -48.765625 C 12.113281 -44.367188 10.84375 -38.082031 10.84375 -29.90625 C 10.84375 -21.78125 12.15625 -15.503906 14.78125 -11.078125 C 17.414062 -6.660156 21.171875 -4.453125 26.046875 -4.453125 Z M 26.046875 -4.453125 "/></g></g><g style="fill:#9d7ad9;fill-opacity:1;"><g transform="translate(1169.420173, 764.999982)"><path style="stroke:none" d="M 47.203125 0 L 39.140625 0 L 24.1875 -27.046875 L 12.765625 -27.046875 L 12.765625 0 L 6.46875 0 L 6.46875 -59.640625 L 28.984375 -59.640625 C 34.296875 -59.640625 38.394531 -58.222656 41.28125 -55.390625 C 44.164062 -52.566406 45.609375 -48.492188 45.609375 -43.171875 C 45.609375 -38.578125 44.445312 -34.910156 42.125 -32.171875 C 39.800781 -29.429688 36.484375 -27.78125 32.171875 -27.21875 Z M 12.765625 -53.765625 L 12.765625 -32.921875 L 28.984375 -32.921875 C 32.398438 -32.921875 35.003906 -33.800781 36.796875 -35.5625 C 38.585938 -37.332031 39.425781 -39.867188 39.3125 -43.171875 C 39.3125 -46.585938 38.414062 -49.207031 36.625 -51.03125 C 34.832031 -52.851562 32.285156 -53.765625 28.984375 -53.765625 Z M 12.765625 -53.765625 "/></g></g><g style="fill:#9d7ad9;fill-opacity:1;"><g transform="translate(1216.628194, 764.999982)"><path style="stroke:none" d="M 42.5 0 L 37.375 -15.875 L 13.015625 -15.875 L 7.890625 0 L 1.59375 0 L 21.171875 -59.640625 L 29.234375 -59.640625 L 48.796875 0 Z M 25.203125 -53.84375 L 14.875 -21.75 L 35.53125 -21.75 Z M 25.203125 -53.84375 "/></g></g><g style="fill:#9d7ad9;fill-opacity:1;"><g transform="translate(1263.836214, 764.999982)"><path style="stroke:none" d="M 28.3125 0 L 21.5 0 L 21.5 -53.765625 L 2.1875 -53.765625 L 2.1875 -59.640625 L 48.125 -59.640625 L 48.125 -53.765625 L 28.3125 -53.765625 Z M 28.3125 0 "/></g></g><g style="fill:#9d7ad9;fill-opacity:1;"><g transform="translate(1311.04419, 764.999982)"><path style="stroke:none" d="M 26.046875 -4.453125 C 33.378906 -4.453125 37.742188 -9.460938 39.140625 -19.484375 L 45.4375 -19.484375 C 43.707031 -5.484375 37.242188 1.484375 26.046875 1.421875 C 19.046875 1.367188 13.640625 -1.367188 9.828125 -6.796875 C 6.015625 -12.234375 4.109375 -19.9375 4.109375 -29.90625 C 4.109375 -39.925781 5.984375 -47.648438 9.734375 -53.078125 C 13.492188 -58.515625 18.84375 -61.234375 25.78125 -61.234375 C 37.207031 -61.234375 43.847656 -54.234375 45.703125 -40.234375 L 39.390625 -40.234375 C 38.160156 -50.316406 33.539062 -55.359375 25.53125 -55.359375 C 20.832031 -55.359375 17.207031 -53.160156 14.65625 -48.765625 C 12.113281 -44.367188 10.84375 -38.082031 10.84375 -29.90625 C 10.84375 -21.78125 12.15625 -15.503906 14.78125 -11.078125 C 17.414062 -6.660156 21.171875 -4.453125 26.046875 -4.453125 Z M 26.046875 -4.453125 "/></g></g><g style="fill:#9d7ad9;fill-opacity:1;"><g transform="translate(1358.252165, 764.999982)"><path style="stroke:none" d="M 38.046875 -59.640625 L 44.359375 -59.640625 L 44.4375 0 L 38.140625 0 L 38.140625 -29.8125 L 12.265625 -29.8125 L 12.265625 0 L 5.96875 0 L 5.96875 -59.640625 L 12.265625 -59.640625 L 12.265625 -35.703125 L 38.046875 -35.703125 Z M 38.046875 -59.640625 "/></g></g><g style="fill:#9d7ad9;fill-opacity:1;"><g transform="translate(1405.46014, 764.999982)"><path style="stroke:none" d="M 4.203125 0 L 4.203125 -9.328125 L 13.53125 -9.328125 L 13.53125 0 Z M 4.203125 0 "/></g></g></g></svg>