<svg xmlns="http://www.w3.org/2000/svg" xmlns:xlink="http://www.w3.org/1999/xlink" width="1920" zoomAndPan="magnify" viewBox="0 0 1440 809.999993" height="1080" preserveAspectRatio="xMidYMid meet" version="1.2"><defs/><g id="a61ae2016e"><g style="fill:#c1ff72;fill-opacity:1;"><g transform="translate(0.00000622222, 156.375012)"><path style="stroke:none" d="M 95.1875 0 L 19.421875 0 L 19.25 -124.234375 L 32.375 -124.234375 L 32.375 -12.25 L 95.1875 -12.25 Z M 95.1875 0 "/></g></g><g style="fill:#c1ff72;fill-opacity:1;"><g transform="translate(98.340799, 156.375012)"><path style="stroke:none" d="M 15.921875 0 L 15.921875 -124.234375 L 92.734375 -124.234375 L 92.734375 -111.984375 L 29.046875 -111.984375 L 29.046875 -71.921875 L 89.765625 -71.921875 L 89.765625 -58.796875 L 29.046875 -58.796875 L 29.046875 -12.25 L 92.734375 -12.25 L 92.734375 0 Z M 15.921875 0 "/></g></g><g style="fill:#c1ff72;fill-opacity:1;"><g transform="translate(196.681591, 156.375012)"><path style="stroke:none" d="M 58.96875 0 L 44.796875 0 L 44.796875 -111.984375 L 4.546875 -111.984375 L 4.546875 -124.234375 L 100.265625 -124.234375 L 100.265625 -111.984375 L 58.96875 -111.984375 Z M 58.96875 0 "/></g></g><g style="fill:#c1ff72;fill-opacity:1;"><g transform="translate(295.022383, 156.375012)"><path style="stroke:none" d="M 46.375 -87.3125 L 7.703125 -87.3125 L 7.703125 -97.640625 L 35.34375 -97.46875 L 35.34375 -107.96875 L 22.046875 -107.96875 L 22.046875 -127.21875 L 46.375 -127.21875 Z M 46.375 -87.3125 "/></g></g><g style="fill:#c1ff72;fill-opacity:1;"><g transform="translate(393.363175, 156.375012)"><path style="stroke:none" d="M 51.96875 1.578125 C 42.988281 1.578125 35.226562 -0.226562 28.6875 -3.84375 C 22.15625 -7.46875 17.109375 -12.601562 13.546875 -19.25 C 9.992188 -25.894531 8.21875 -33.710938 8.21875 -42.703125 L 21.34375 -42.703125 C 21.34375 -36.628906 22.65625 -31.203125 25.28125 -26.421875 C 27.90625 -21.640625 31.492188 -17.878906 36.046875 -15.140625 C 40.597656 -12.398438 45.847656 -10.910156 51.796875 -10.671875 C 57.742188 -10.554688 63.050781 -11.546875 67.71875 -13.640625 C 72.382812 -15.742188 76 -18.691406 78.5625 -22.484375 C 81.132812 -26.273438 82.242188 -30.5625 81.890625 -35.34375 C 81.546875 -44.914062 73.847656 -52.382812 58.796875 -57.75 L 40.25 -64.390625 C 30.800781 -67.773438 23.828125 -71.65625 19.328125 -76.03125 C 14.835938 -80.40625 12.363281 -85.625 11.90625 -91.6875 C 11.4375 -98.570312 12.863281 -104.726562 16.1875 -110.15625 C 19.507812 -115.582031 24.257812 -119.835938 30.4375 -122.921875 C 36.625 -126.015625 43.628906 -127.445312 51.453125 -127.21875 C 63.578125 -126.863281 73.398438 -123.273438 80.921875 -116.453125 C 88.453125 -109.628906 92.507812 -100.554688 93.09375 -89.234375 L 79.96875 -89.234375 C 79.5 -96.585938 76.582031 -102.6875 71.21875 -107.53125 C 65.851562 -112.375 59.203125 -114.851562 51.265625 -114.96875 C 46.015625 -115.195312 41.378906 -114.378906 37.359375 -112.515625 C 33.335938 -110.648438 30.21875 -107.992188 28 -104.546875 C 25.78125 -101.109375 24.785156 -97.234375 25.015625 -92.921875 C 25.253906 -89.648438 27.003906 -86.757812 30.265625 -84.25 C 33.535156 -81.75 38.613281 -79.15625 45.5 -76.46875 L 64.5625 -69.296875 C 83.925781 -61.941406 93.960938 -51.265625 94.671875 -37.265625 C 95.015625 -30.035156 93.320312 -23.472656 89.59375 -17.578125 C 85.863281 -11.691406 80.726562 -7.023438 74.1875 -3.578125 C 67.65625 -0.140625 60.25 1.578125 51.96875 1.578125 Z M 51.96875 1.578125 "/></g></g><g style="fill:#c1ff72;fill-opacity:1;"><g transform="translate(491.703991, 156.375012)"><path style="stroke:none" d=""/></g></g><g style="fill:#c1ff72;fill-opacity:1;"><g transform="translate(590.044761, 156.375012)"><path style="stroke:none" d="M 80.84375 -83.8125 C 79.90625 -93.5 76.664062 -101.171875 71.125 -106.828125 C 65.582031 -112.484375 58.5 -115.3125 49.875 -115.3125 C 38.90625 -115.3125 30.472656 -110.734375 24.578125 -101.578125 C 18.691406 -92.421875 15.75 -79.328125 15.75 -62.296875 C 15.75 -45.378906 18.835938 -32.3125 25.015625 -23.09375 C 31.203125 -13.882812 39.953125 -9.28125 51.265625 -9.28125 C 60.367188 -9.28125 67.570312 -13.066406 72.875 -20.640625 C 78.1875 -28.222656 80.84375 -38.550781 80.84375 -51.625 L 80.84375 -53.71875 L 45.140625 -53.71875 L 45.140625 -65.96875 L 92.390625 -65.96875 L 92.390625 2.28125 L 80.140625 2.28125 L 80.140625 -1.40625 L 80.3125 -12.078125 C 77.394531 -7.410156 73.132812 -3.703125 67.53125 -0.953125 C 61.9375 1.785156 56.050781 3.09375 49.875 2.96875 C 34.707031 2.851562 23.039062 -2.859375 14.875 -14.171875 C 6.707031 -25.484375 2.625 -41.523438 2.625 -62.296875 C 2.625 -83.171875 6.707031 -99.238281 14.875 -110.5 C 23.039062 -121.757812 34.707031 -127.445312 49.875 -127.5625 C 62.238281 -127.675781 72.148438 -123.941406 79.609375 -116.359375 C 87.078125 -108.773438 91.335938 -97.925781 92.390625 -83.8125 Z M 80.84375 -83.8125 "/></g></g><g style="fill:#c1ff72;fill-opacity:1;"><g transform="translate(688.385531, 156.375012)"><path style="stroke:none" d="M 15.921875 0 L 15.921875 -124.234375 L 92.734375 -124.234375 L 92.734375 -111.984375 L 29.046875 -111.984375 L 29.046875 -71.921875 L 89.765625 -71.921875 L 89.765625 -58.796875 L 29.046875 -58.796875 L 29.046875 -12.25 L 92.734375 -12.25 L 92.734375 0 Z M 15.921875 0 "/></g></g><g style="fill:#c1ff72;fill-opacity:1;"><g transform="translate(786.726346, 156.375012)"><path style="stroke:none" d="M 58.96875 0 L 44.796875 0 L 44.796875 -111.984375 L 4.546875 -111.984375 L 4.546875 -124.234375 L 100.265625 -124.234375 L 100.265625 -111.984375 L 58.96875 -111.984375 Z M 58.96875 0 "/></g></g><g style="fill:#9d7ad9;fill-opacity:1;"><g transform="translate(610.31424, 780.625349)"><path style="stroke:none" d="M 94.671875 0 L 10.328125 0 L 10.328125 -12.25 L 45.328125 -12.25 L 45.328125 -111.984375 L 10.328125 -111.984375 L 10.328125 -124.234375 L 94.671875 -124.234375 L 94.671875 -111.984375 L 58.4375 -111.984375 L 58.4375 -12.25 L 94.671875 -12.25 Z M 94.671875 0 "/></g></g><g style="fill:#9d7ad9;fill-opacity:1;"><g transform="translate(708.655032, 780.625349)"><path style="stroke:none" d="M 12.421875 0 L 12.421875 -124.234375 L 92.390625 -124.234375 L 92.5625 0 L 79.4375 0 L 79.265625 -111.984375 L 25.546875 -111.984375 L 25.546875 0 Z M 12.421875 0 "/></g></g><g style="fill:#9d7ad9;fill-opacity:1;"><g transform="translate(806.995824, 780.625349)"><path style="stroke:none" d=""/></g></g><g style="fill:#9d7ad9;fill-opacity:1;"><g transform="translate(905.336616, 780.625349)"><path style="stroke:none" d="M 58.96875 0 L 44.796875 0 L 44.796875 -111.984375 L 4.546875 -111.984375 L 4.546875 -124.234375 L 100.265625 -124.234375 L 100.265625 -111.984375 L 58.96875 -111.984375 Z M 58.96875 0 "/></g></g><g style="fill:#9d7ad9;fill-opacity:1;"><g transform="translate(1003.677409, 780.625349)"><path style="stroke:none" d="M 5.421875 -62.125 C 5.421875 -83 9.359375 -99.035156 17.234375 -110.234375 C 25.109375 -121.429688 36.335938 -127.09375 50.921875 -127.21875 C 65.503906 -127.332031 76.703125 -121.757812 84.515625 -110.5 C 92.328125 -99.238281 96.234375 -83.113281 96.234375 -62.125 C 96.234375 -41.125 92.328125 -24.992188 84.515625 -13.734375 C 76.703125 -2.472656 65.503906 3.09375 50.921875 2.96875 C 36.335938 2.851562 25.109375 -2.828125 17.234375 -14.078125 C 9.359375 -25.335938 5.421875 -41.351562 5.421875 -62.125 Z M 83.125 -62.125 C 83.125 -79.15625 80.351562 -92.21875 74.8125 -101.3125 C 69.269531 -110.414062 61.304688 -114.96875 50.921875 -114.96875 C 40.535156 -114.96875 32.539062 -110.414062 26.9375 -101.3125 C 21.34375 -92.21875 18.546875 -79.15625 18.546875 -62.125 C 18.546875 -45.207031 21.34375 -32.171875 26.9375 -23.015625 C 32.539062 -13.859375 40.535156 -9.28125 50.921875 -9.28125 C 61.304688 -9.28125 69.269531 -13.859375 74.8125 -23.015625 C 80.351562 -32.171875 83.125 -45.207031 83.125 -62.125 Z M 83.125 -62.125 "/></g></g><g style="fill:#9d7ad9;fill-opacity:1;"><g transform="translate(1102.018224, 780.625349)"><path style="stroke:none" d="M 8.40625 -30.09375 L 8.578125 -87.5 L 8.578125 -124.234375 L 21.703125 -124.234375 L 21.515625 -32.015625 C 21.515625 -25.953125 23.613281 -21.171875 27.8125 -17.671875 C 32.019531 -14.171875 37.679688 -12.421875 44.796875 -12.421875 L 74.375 -12.25 L 74.546875 -124.234375 L 87.671875 -124.234375 L 87.5 0 L 42.34375 0 C 35.695312 0 29.835938 -1.28125 24.765625 -3.84375 C 19.691406 -6.414062 15.695312 -9.972656 12.78125 -14.515625 C 9.863281 -19.066406 8.40625 -24.257812 8.40625 -30.09375 Z M 8.40625 -30.09375 "/></g></g><g style="fill:#9d7ad9;fill-opacity:1;"><g transform="translate(1200.358994, 780.625349)"><path style="stroke:none" d="M 54.25 -9.28125 C 69.53125 -9.28125 78.628906 -19.71875 81.546875 -40.59375 L 94.671875 -40.59375 C 91.046875 -11.425781 77.570312 3.09375 54.25 2.96875 C 39.664062 2.851562 28.40625 -2.859375 20.46875 -14.171875 C 12.539062 -25.484375 8.578125 -41.523438 8.578125 -62.296875 C 8.578125 -83.171875 12.484375 -99.265625 20.296875 -110.578125 C 28.109375 -121.898438 39.25 -127.5625 53.71875 -127.5625 C 77.519531 -127.5625 91.34375 -112.976562 95.1875 -83.8125 L 82.0625 -83.8125 C 79.5 -104.8125 69.875 -115.3125 53.1875 -115.3125 C 43.394531 -115.3125 35.84375 -110.734375 30.53125 -101.578125 C 25.226562 -92.421875 22.578125 -79.328125 22.578125 -62.296875 C 22.578125 -45.378906 25.316406 -32.3125 30.796875 -23.09375 C 36.273438 -13.882812 44.09375 -9.28125 54.25 -9.28125 Z M 54.25 -9.28125 "/></g></g><g style="fill:#9d7ad9;fill-opacity:1;"><g transform="translate(1298.699764, 780.625349)"><path style="stroke:none" d="M 79.265625 -124.234375 L 92.390625 -124.234375 L 92.5625 0 L 79.4375 0 L 79.4375 -62.125 L 25.546875 -62.125 L 25.546875 0 L 12.421875 0 L 12.421875 -124.234375 L 25.546875 -124.234375 L 25.546875 -74.375 L 79.265625 -74.375 Z M 79.265625 -124.234375 "/></g></g></g></svg>