<svg xmlns="http://www.w3.org/2000/svg" xmlns:xlink="http://www.w3.org/1999/xlink" width="1920" zoomAndPan="magnify" viewBox="0 0 1440 809.999993" height="1080" preserveAspectRatio="xMidYMid meet" version="1.0"><defs><g/><clipPath id="35044f023f"><path d="M 66 587 L 207 587 L 207 770 L 66 770 Z M 66 587 " clip-rule="nonzero"/></clipPath><clipPath id="664cebad27"><path d="M 94.257812 579.488281 L 207.710938 601.144531 L 173.960938 777.953125 L 60.507812 756.296875 Z M 94.257812 579.488281 " clip-rule="nonzero"/></clipPath><clipPath id="30309c8a88"><path d="M 94.257812 579.488281 L 207.710938 601.144531 L 173.960938 777.953125 L 60.507812 756.296875 Z M 94.257812 579.488281 " clip-rule="nonzero"/></clipPath><clipPath id="7263f79507"><path d="M 81 596 L 147 596 L 147 706 L 81 706 Z M 81 596 " clip-rule="nonzero"/></clipPath><clipPath id="8da1222bf4"><path d="M 94.257812 579.488281 L 207.710938 601.144531 L 173.960938 777.953125 L 60.507812 756.296875 Z M 94.257812 579.488281 " clip-rule="nonzero"/></clipPath><clipPath id="b9f3f38df8"><path d="M 94.257812 579.488281 L 207.710938 601.144531 L 173.960938 777.953125 L 60.507812 756.296875 Z M 94.257812 579.488281 " clip-rule="nonzero"/></clipPath><clipPath id="8a7f511ec3"><path d="M 129 611 L 163 611 L 163 711 L 129 711 Z M 129 611 " clip-rule="nonzero"/></clipPath><clipPath id="91736d477c"><path d="M 94.257812 579.488281 L 207.710938 601.144531 L 173.960938 777.953125 L 60.507812 756.296875 Z M 94.257812 579.488281 " clip-rule="nonzero"/></clipPath><clipPath id="c5c731e2f8"><path d="M 94.257812 579.488281 L 207.710938 601.144531 L 173.960938 777.953125 L 60.507812 756.296875 Z M 94.257812 579.488281 " clip-rule="nonzero"/></clipPath><clipPath id="9e495a24ef"><path d="M 78 692 L 137 692 L 137 751 L 78 751 Z M 78 692 " clip-rule="nonzero"/></clipPath><clipPath id="9ca0308fd0"><path d="M 94.257812 579.488281 L 207.710938 601.144531 L 173.960938 777.953125 L 60.507812 756.296875 Z M 94.257812 579.488281 " clip-rule="nonzero"/></clipPath><clipPath id="16c7c9309a"><path d="M 94.257812 579.488281 L 207.710938 601.144531 L 173.960938 777.953125 L 60.507812 756.296875 Z M 94.257812 579.488281 " clip-rule="nonzero"/></clipPath><clipPath id="4d192a0a1a"><path d="M 73 690 L 143 690 L 143 759 L 73 759 Z M 73 690 " clip-rule="nonzero"/></clipPath><clipPath id="11af0ac31d"><path d="M 94.257812 579.488281 L 207.710938 601.144531 L 173.960938 777.953125 L 60.507812 756.296875 Z M 94.257812 579.488281 " clip-rule="nonzero"/></clipPath><clipPath id="96fdf941d9"><path d="M 94.257812 579.488281 L 207.710938 601.144531 L 173.960938 777.953125 L 60.507812 756.296875 Z M 94.257812 579.488281 " clip-rule="nonzero"/></clipPath><clipPath id="47c4cd315f"><path d="M 88 608 L 136 608 L 136 693 L 88 693 Z M 88 608 " clip-rule="nonzero"/></clipPath><clipPath id="81b9e41886"><path d="M 94.257812 579.488281 L 207.710938 601.144531 L 173.960938 777.953125 L 60.507812 756.296875 Z M 94.257812 579.488281 " clip-rule="nonzero"/></clipPath><clipPath id="668a7a5ee8"><path d="M 94.257812 579.488281 L 207.710938 601.144531 L 173.960938 777.953125 L 60.507812 756.296875 Z M 94.257812 579.488281 " clip-rule="nonzero"/></clipPath><clipPath id="870aaef099"><path d="M 99 634 L 132 634 L 132 656 L 99 656 Z M 99 634 " clip-rule="nonzero"/></clipPath><clipPath id="844bad9c9d"><path d="M 94.257812 579.488281 L 207.710938 601.144531 L 173.960938 777.953125 L 60.507812 756.296875 Z M 94.257812 579.488281 " clip-rule="nonzero"/></clipPath><clipPath id="3bbe6c4a58"><path d="M 94.257812 579.488281 L 207.710938 601.144531 L 173.960938 777.953125 L 60.507812 756.296875 Z M 94.257812 579.488281 " clip-rule="nonzero"/></clipPath><clipPath id="035dd18604"><path d="M 96 653 L 128 653 L 128 674 L 96 674 Z M 96 653 " clip-rule="nonzero"/></clipPath><clipPath id="753c928bf7"><path d="M 94.257812 579.488281 L 207.710938 601.144531 L 173.960938 777.953125 L 60.507812 756.296875 Z M 94.257812 579.488281 " clip-rule="nonzero"/></clipPath><clipPath id="e8c76b62f4"><path d="M 94.257812 579.488281 L 207.710938 601.144531 L 173.960938 777.953125 L 60.507812 756.296875 Z M 94.257812 579.488281 " clip-rule="nonzero"/></clipPath><clipPath id="4a3df8bbfc"><path d="M 93 665 L 107 665 L 107 677 L 93 677 Z M 93 665 " clip-rule="nonzero"/></clipPath><clipPath id="ecf189279b"><path d="M 94.257812 579.488281 L 207.710938 601.144531 L 173.960938 777.953125 L 60.507812 756.296875 Z M 94.257812 579.488281 " clip-rule="nonzero"/></clipPath><clipPath id="45814197e9"><path d="M 94.257812 579.488281 L 207.710938 601.144531 L 173.960938 777.953125 L 60.507812 756.296875 Z M 94.257812 579.488281 " clip-rule="nonzero"/></clipPath><clipPath id="901e399f97"><path d="M 100 629 L 114 629 L 114 641 L 100 641 Z M 100 629 " clip-rule="nonzero"/></clipPath><clipPath id="3c0763e509"><path d="M 94.257812 579.488281 L 207.710938 601.144531 L 173.960938 777.953125 L 60.507812 756.296875 Z M 94.257812 579.488281 " clip-rule="nonzero"/></clipPath><clipPath id="4eb9b787f2"><path d="M 94.257812 579.488281 L 207.710938 601.144531 L 173.960938 777.953125 L 60.507812 756.296875 Z M 94.257812 579.488281 " clip-rule="nonzero"/></clipPath><clipPath id="edb07a4817"><path d="M 97 648 L 109 648 L 109 659 L 97 659 Z M 97 648 " clip-rule="nonzero"/></clipPath><clipPath id="c16eba6ad5"><path d="M 94.257812 579.488281 L 207.710938 601.144531 L 173.960938 777.953125 L 60.507812 756.296875 Z M 94.257812 579.488281 " clip-rule="nonzero"/></clipPath><clipPath id="c95aa69c1b"><path d="M 94.257812 579.488281 L 207.710938 601.144531 L 173.960938 777.953125 L 60.507812 756.296875 Z M 94.257812 579.488281 " clip-rule="nonzero"/></clipPath><clipPath id="83238fde31"><path d="M 83 699 L 132 699 L 132 744 L 83 744 Z M 83 699 " clip-rule="nonzero"/></clipPath><clipPath id="22c5e9c568"><path d="M 94.257812 579.488281 L 207.710938 601.144531 L 173.960938 777.953125 L 60.507812 756.296875 Z M 94.257812 579.488281 " clip-rule="nonzero"/></clipPath><clipPath id="17355b47e3"><path d="M 94.257812 579.488281 L 207.710938 601.144531 L 173.960938 777.953125 L 60.507812 756.296875 Z M 94.257812 579.488281 " clip-rule="nonzero"/></clipPath><clipPath id="4ed9a27baa"><path d="M 1290 132 L 1429 132 L 1429 308 L 1290 308 Z M 1290 132 " clip-rule="nonzero"/></clipPath><clipPath id="a8502951e1"><path d="M 1282.429688 152.964844 L 1386.664062 121.953125 L 1435.851562 287.292969 L 1331.617188 318.300781 Z M 1282.429688 152.964844 " clip-rule="nonzero"/></clipPath><clipPath id="3410544c72"><path d="M 1282.429688 152.964844 L 1386.664062 121.953125 L 1435.851562 287.292969 L 1331.617188 318.300781 Z M 1282.429688 152.964844 " clip-rule="nonzero"/></clipPath><clipPath id="a82af5af3a"><path d="M 1291 140 L 1428 140 L 1428 297 L 1291 297 Z M 1291 140 " clip-rule="nonzero"/></clipPath><clipPath id="e8ffad7d42"><path d="M 1282.429688 152.964844 L 1386.664062 121.953125 L 1435.851562 287.292969 L 1331.617188 318.300781 Z M 1282.429688 152.964844 " clip-rule="nonzero"/></clipPath><clipPath id="655c5d6682"><path d="M 1282.429688 152.964844 L 1386.664062 121.953125 L 1435.851562 287.292969 L 1331.617188 318.300781 Z M 1282.429688 152.964844 " clip-rule="nonzero"/></clipPath><clipPath id="0b56675473"><path d="M 1307 165 L 1417 165 L 1417 287 L 1307 287 Z M 1307 165 " clip-rule="nonzero"/></clipPath><clipPath id="a5d60788fc"><path d="M 1282.429688 152.964844 L 1386.664062 121.953125 L 1435.851562 287.292969 L 1331.617188 318.300781 Z M 1282.429688 152.964844 " clip-rule="nonzero"/></clipPath><clipPath id="a79171c749"><path d="M 1282.429688 152.964844 L 1386.664062 121.953125 L 1435.851562 287.292969 L 1331.617188 318.300781 Z M 1282.429688 152.964844 " clip-rule="nonzero"/></clipPath><clipPath id="431e17e200"><path d="M 1294 133 L 1428 133 L 1428 307 L 1294 307 Z M 1294 133 " clip-rule="nonzero"/></clipPath><clipPath id="15214c03e0"><path d="M 1282.429688 152.964844 L 1386.664062 121.953125 L 1435.851562 287.292969 L 1331.617188 318.300781 Z M 1282.429688 152.964844 " clip-rule="nonzero"/></clipPath><clipPath id="37760e0153"><path d="M 1282.429688 152.964844 L 1386.664062 121.953125 L 1435.851562 287.292969 L 1331.617188 318.300781 Z M 1282.429688 152.964844 " clip-rule="nonzero"/></clipPath><clipPath id="e4adcd8875"><path d="M 1308 168 L 1416 168 L 1416 284 L 1308 284 Z M 1308 168 " clip-rule="nonzero"/></clipPath><clipPath id="2f06d94e05"><path d="M 1282.429688 152.964844 L 1386.664062 121.953125 L 1435.851562 287.292969 L 1331.617188 318.300781 Z M 1282.429688 152.964844 " clip-rule="nonzero"/></clipPath><clipPath id="fb11e127dd"><path d="M 1282.429688 152.964844 L 1386.664062 121.953125 L 1435.851562 287.292969 L 1331.617188 318.300781 Z M 1282.429688 152.964844 " clip-rule="nonzero"/></clipPath><clipPath id="bb7f874692"><rect x="0" width="230" y="0" height="66"/></clipPath></defs><g clip-path="url(#35044f023f)"><g clip-path="url(#664cebad27)"><g clip-path="url(#30309c8a88)"><path fill="#c1ff72" d="M 67.515625 727.8125 C 68.773438 720.285156 70.265625 712.804688 71.566406 705.285156 C 72.480469 700 73.5625 694.75 74.417969 689.457031 C 75.332031 683.796875 76.53125 678.191406 77.453125 672.539062 C 78.316406 667.214844 79.449219 661.9375 80.3125 656.617188 C 81.222656 650.988281 82.417969 645.414062 83.328125 639.789062 C 84.304688 633.765625 85.589844 627.804688 86.585938 621.789062 C 87.695312 615.105469 89.070312 608.476562 90.203125 601.800781 C 90.683594 598.992188 91.164062 596.183594 91.675781 593.382812 C 92.285156 590.027344 94.28125 588.234375 97.746094 588.152344 C 103.527344 588.015625 109.3125 588.003906 115.097656 587.914062 C 121.800781 587.8125 128.503906 587.691406 135.207031 587.554688 C 136.378906 587.527344 137.429688 587.945312 138.511719 588.242188 C 142.4375 589.3125 146.347656 590.441406 150.261719 591.554688 C 154.648438 592.804688 159.027344 594.074219 163.410156 595.320312 C 167.121094 596.371094 170.839844 597.386719 174.550781 598.4375 C 179 599.691406 183.4375 600.976562 187.882812 602.230469 C 191.65625 603.292969 195.433594 604.332031 199.207031 605.382812 C 200.652344 605.785156 202.101562 606.15625 203.535156 606.609375 C 205.222656 607.140625 206.355469 608.925781 205.988281 610.648438 C 204.808594 616.222656 203.558594 621.78125 202.335938 627.34375 C 202.28125 627.582031 202.222656 627.820312 202.171875 628.058594 C 201.222656 632.589844 200.320312 637.125 199.320312 641.640625 C 198.058594 647.355469 196.851562 653.082031 195.667969 658.808594 C 194.433594 664.78125 193.152344 670.738281 191.890625 676.703125 C 190.625 682.664062 189.363281 688.628906 188.097656 694.59375 C 186.863281 700.40625 185.628906 706.21875 184.394531 712.03125 C 183.042969 718.445312 181.746094 724.871094 180.328125 731.273438 C 179.503906 734.984375 178.789062 738.710938 178.046875 742.4375 C 177.777344 743.796875 177.234375 744.921875 175.894531 745.542969 C 175.277344 745.828125 174.824219 746.351562 174.398438 746.882812 C 173.023438 748.605469 171.617188 750.304688 170.28125 752.058594 C 169.796875 752.695312 169.292969 752.789062 168.609375 752.542969 C 168.148438 752.378906 167.644531 752.316406 167.214844 752.101562 C 165.945312 751.460938 164.886719 751.824219 163.695312 752.460938 C 155.609375 756.765625 147.566406 761.15625 139.398438 765.3125 C 137.410156 766.328125 135.8125 767.871094 134.21875 769.398438 C 133.578125 770.011719 133.035156 770.164062 132.199219 769.796875 C 130.605469 769.09375 128.96875 768.484375 127.332031 767.875 C 126.671875 767.628906 126.375 767.234375 126.339844 766.527344 C 126.300781 765.671875 126.117188 764.824219 126.070312 763.96875 C 126.035156 763.253906 125.703125 762.894531 125.054688 762.632812 C 113.921875 758.15625 102.792969 753.671875 91.671875 749.171875 C 88.234375 747.785156 84.796875 746.410156 81.371094 745 C 80.671875 744.710938 80.199219 744.722656 79.753906 745.429688 C 79.203125 746.308594 78.535156 747.113281 77.929688 747.960938 C 77.660156 748.339844 77.390625 748.464844 76.925781 748.257812 C 74.902344 747.378906 72.867188 746.535156 70.835938 745.679688 C 70.382812 745.488281 70.199219 745.183594 70.21875 744.683594 C 70.257812 743.367188 70.242188 742.050781 70.28125 740.734375 C 70.296875 740.207031 70.121094 739.902344 69.621094 739.675781 C 67.171875 738.566406 65.96875 736.285156 66.421875 733.59375 C 66.75 731.660156 67.148438 729.738281 67.515625 727.8125 Z M 164.605469 616.847656 L 164.683594 616.863281 C 164.734375 616.59375 164.761719 616.3125 164.84375 616.050781 C 165.101562 615.183594 164.726562 614.714844 163.917969 614.476562 C 161.539062 613.777344 159.164062 613.0625 156.785156 612.367188 C 152.203125 611.03125 147.613281 609.71875 143.035156 608.367188 C 138.078125 606.902344 133.132812 605.390625 128.175781 603.917969 C 123.746094 602.601562 119.308594 601.320312 114.878906 600 C 109.335938 598.34375 103.804688 596.660156 98.265625 595.003906 C 96.90625 594.59375 96.886719 594.613281 96.644531 596.003906 C 95.640625 601.828125 94.417969 607.621094 93.488281 613.457031 C 92.582031 619.117188 91.359375 624.71875 90.441406 630.375 C 89.441406 636.511719 88.132812 642.597656 87.140625 648.738281 C 86.289062 654.003906 85.160156 659.214844 84.300781 664.476562 C 83.285156 670.703125 81.96875 676.882812 80.957031 683.113281 C 80.121094 688.253906 79.066406 693.355469 78.175781 698.488281 C 76.445312 708.480469 74.558594 718.449219 72.746094 728.425781 C 72.363281 730.535156 72.050781 732.65625 71.660156 734.765625 C 71.539062 735.414062 71.757812 735.730469 72.332031 735.953125 C 73.558594 736.425781 74.777344 736.929688 75.996094 737.421875 C 91.257812 743.609375 106.519531 749.792969 121.785156 755.976562 C 124.988281 757.269531 128.113281 758.78125 131.414062 759.824219 C 133.378906 760.445312 134.359375 759.816406 134.785156 757.816406 C 135.871094 752.726562 137 747.640625 138.050781 742.542969 C 139.28125 736.542969 140.582031 730.554688 141.851562 724.5625 C 143.058594 718.839844 144.265625 713.113281 145.507812 707.394531 C 146.980469 700.601562 148.371094 693.785156 149.8125 686.984375 C 150.851562 682.070312 151.925781 677.164062 152.972656 672.25 C 154.292969 666.046875 155.636719 659.851562 156.898438 653.636719 C 158.152344 647.449219 159.472656 641.28125 160.800781 635.113281 C 162.109375 629.03125 163.339844 622.9375 164.605469 616.847656 Z M 202.273438 608.316406 C 201.253906 607.75 200.210938 607.480469 199.039062 607.574219 C 189.910156 608.289062 180.78125 608.984375 171.652344 609.660156 C 171.109375 609.699219 170.574219 609.765625 170.019531 609.574219 C 165.308594 607.929688 160.492188 606.636719 155.707031 605.230469 C 152.210938 604.207031 148.703125 603.222656 145.203125 602.210938 C 141.03125 601.007812 136.855469 599.800781 132.683594 598.585938 C 129.214844 597.582031 125.742188 596.59375 122.273438 595.589844 C 118.777344 594.578125 115.28125 593.550781 111.785156 592.542969 C 108.582031 591.621094 105.367188 590.726562 102.164062 589.796875 C 100.675781 589.363281 99.210938 589.453125 97.734375 589.796875 C 103.398438 591.527344 109.058594 593.195312 114.722656 594.851562 C 120.449219 596.527344 126.175781 598.199219 131.90625 599.867188 C 138.574219 601.808594 145.246094 603.753906 151.914062 605.695312 C 157.054688 607.191406 162.195312 608.6875 167.339844 610.183594 C 168.5625 610.539062 169.609375 611.128906 170.085938 612.402344 C 170.40625 613.257812 170.386719 614.140625 170.195312 615.027344 C 169.28125 619.183594 168.335938 623.335938 167.46875 627.503906 C 166.417969 632.542969 165.300781 637.566406 164.21875 642.597656 C 163.0625 647.988281 161.90625 653.378906 160.757812 658.773438 C 159.550781 664.46875 158.339844 670.160156 157.125 675.851562 C 155.90625 681.574219 154.6875 687.296875 153.472656 693.019531 C 152.257812 698.746094 151.039062 704.46875 149.820312 710.191406 C 148.605469 715.914062 147.378906 721.632812 146.167969 727.359375 C 144.921875 733.261719 143.667969 739.167969 142.40625 745.070312 C 141.164062 750.882812 140.015625 756.714844 138.835938 762.539062 C 138.78125 762.820312 138.609375 763.113281 138.820312 763.457031 C 139.777344 763.148438 140.519531 762.679688 140.667969 761.558594 C 140.734375 761.050781 141.003906 760.566406 141.066406 760.054688 C 141.15625 759.289062 141.589844 758.894531 142.234375 758.558594 C 152.578125 753.140625 162.917969 747.71875 173.253906 742.285156 C 174.285156 741.746094 175.324219 741.21875 176.359375 740.6875 C 177.007812 740.355469 176.960938 739.691406 176.746094 739.257812 C 176.550781 738.863281 176.140625 739.386719 175.816406 739.46875 C 175.730469 739.488281 175.652344 739.554688 175.574219 739.597656 C 164.675781 745.34375 153.78125 751.09375 142.882812 756.835938 C 142.605469 756.984375 142.285156 757.363281 141.988281 757.121094 C 141.714844 756.898438 141.960938 756.484375 142.027344 756.167969 C 143.386719 749.632812 144.785156 743.101562 146.117188 736.554688 C 147.464844 729.921875 148.890625 723.300781 150.28125 716.675781 C 151.617188 710.289062 152.976562 703.90625 154.308594 697.519531 C 155.761719 690.5625 157.214844 683.605469 158.671875 676.648438 C 159.984375 670.347656 161.308594 664.054688 162.648438 657.761719 C 164.394531 649.550781 166.128906 641.339844 167.921875 633.140625 C 169.023438 628.082031 170.019531 623 171.070312 617.929688 C 171.164062 617.480469 171.316406 617.042969 171.414062 616.59375 C 171.746094 615.140625 172.3125 613.675781 171.675781 612.1875 C 171.320312 611.355469 171.632812 611.222656 172.378906 611.160156 C 180.800781 610.453125 189.222656 609.726562 197.640625 608.980469 C 199.1875 608.84375 200.746094 608.761719 202.273438 608.316406 Z M 202.273438 608.316406 " fill-opacity="1" fill-rule="nonzero"/></g></g></g><g clip-path="url(#7263f79507)"><g clip-path="url(#8da1222bf4)"><g clip-path="url(#b9f3f38df8)"><path fill="#c1ff72" d="M 144.933594 618.613281 C 143.644531 625.355469 142.441406 632.113281 141.042969 638.828125 C 140.136719 643.175781 139.375 647.550781 138.398438 651.886719 C 137.230469 657.058594 136.375 662.292969 135.214844 667.464844 C 134.234375 671.828125 133.523438 676.246094 132.539062 680.609375 C 131.378906 685.75 130.515625 690.953125 129.375 696.09375 C 128.773438 698.785156 128.269531 701.496094 127.710938 704.191406 C 127.464844 705.363281 127.441406 705.394531 126.347656 705 C 121.105469 703.117188 115.867188 701.226562 110.632812 699.332031 C 103.0625 696.597656 95.492188 693.863281 87.925781 691.132812 C 86.054688 690.457031 84.1875 689.773438 82.308594 689.121094 C 81.730469 688.921875 81.523438 688.585938 81.675781 688.007812 C 81.707031 687.890625 81.722656 687.765625 81.742188 687.644531 C 82.390625 683.902344 83.105469 680.171875 83.757812 676.433594 C 85.480469 666.5625 87.390625 656.726562 89.09375 646.855469 C 90.082031 641.152344 91.238281 635.476562 92.167969 629.761719 C 93.007812 624.621094 94.09375 619.527344 94.929688 614.386719 C 95.832031 608.820312 96.941406 603.292969 97.914062 597.742188 C 98.066406 596.882812 98.375 596.695312 99.179688 596.941406 C 102.339844 597.910156 105.507812 598.839844 108.675781 599.78125 C 111.898438 600.742188 115.125 601.707031 118.347656 602.671875 C 122.746094 603.984375 127.140625 605.300781 131.535156 606.621094 C 135.257812 607.730469 138.984375 608.835938 142.707031 609.941406 C 143.703125 610.238281 144.683594 610.605469 145.695312 610.835938 C 146.515625 611.023438 146.589844 611.445312 146.441406 612.167969 C 145.988281 614.328125 145.601562 616.5 145.1875 618.667969 Z M 93.445312 639.25 L 93.667969 639.292969 C 92.289062 646.511719 90.886719 653.730469 89.539062 660.957031 C 88.078125 668.785156 86.667969 676.625 85.222656 684.453125 C 85.097656 685.125 85.078125 685.5625 85.898438 685.847656 C 89.519531 687.089844 93.105469 688.410156 96.707031 689.695312 C 105.582031 692.859375 114.460938 696.019531 123.339844 699.179688 C 124.339844 699.535156 124.371094 699.527344 124.585938 698.460938 C 125.578125 693.535156 126.539062 688.605469 127.554688 683.6875 C 129.742188 673.066406 131.789062 662.414062 133.90625 651.777344 C 134.324219 649.675781 134.792969 647.582031 135.214844 645.480469 C 137.132812 635.933594 138.976562 626.371094 141.078125 616.855469 C 141.457031 615.144531 141.003906 614.414062 139.332031 613.898438 C 134.421875 612.375 129.507812 610.871094 124.597656 609.359375 C 117.171875 607.070312 109.746094 604.78125 102.320312 602.496094 C 100.734375 602.003906 100.328125 602.253906 100.027344 603.921875 C 98.878906 610.34375 97.585938 616.738281 96.488281 623.171875 C 95.570312 628.546875 94.464844 633.890625 93.445312 639.25 Z M 93.445312 639.25 " fill-opacity="1" fill-rule="nonzero"/></g></g></g><g clip-path="url(#8a7f511ec3)"><g clip-path="url(#91736d477c)"><g clip-path="url(#c5c731e2f8)"><path fill="#c1ff72" d="M 130.625 699.191406 C 132.03125 693.066406 133.191406 686.234375 134.660156 679.46875 C 135.671875 674.796875 136.464844 670.082031 137.496094 665.414062 C 138.785156 659.582031 139.785156 653.6875 141.066406 647.851562 C 142.140625 642.972656 142.949219 638.042969 144.035156 633.167969 C 145.285156 627.542969 146.28125 621.871094 147.457031 616.234375 C 147.707031 615.035156 148.03125 613.847656 148.246094 612.644531 C 148.382812 611.871094 148.769531 611.792969 149.410156 611.988281 C 151.78125 612.714844 154.15625 613.421875 156.527344 614.144531 C 158.429688 614.722656 160.320312 615.332031 162.230469 615.886719 C 162.84375 616.0625 163.007812 616.367188 162.878906 616.957031 C 162.039062 620.785156 161.207031 624.617188 160.382812 628.449219 C 160.324219 628.71875 160.253906 628.984375 160.195312 629.253906 C 159.125 634.445312 158.0625 639.636719 156.976562 644.824219 C 155.699219 650.910156 154.402344 656.988281 153.113281 663.070312 C 151.878906 668.882812 150.648438 674.699219 149.414062 680.511719 C 148.132812 686.5625 146.851562 692.617188 145.566406 698.667969 C 144.761719 702.441406 143.910156 706.207031 143.109375 709.980469 C 142.96875 710.652344 142.703125 710.871094 142.042969 710.632812 C 138.25 709.242188 134.445312 707.890625 130.664062 706.46875 C 129.316406 705.957031 129.34375 705.886719 129.625 704.425781 C 129.921875 702.890625 130.210938 701.355469 130.625 699.191406 Z M 146.800781 632.402344 C 146.371094 634.65625 145.960938 636.917969 145.5 639.164062 C 145.339844 639.933594 145.539062 640.339844 146.308594 640.609375 C 148.902344 641.527344 151.519531 642.367188 154.148438 643.171875 C 154.914062 643.402344 155.207031 643.011719 155.351562 642.335938 C 156.609375 636.347656 157.878906 630.363281 159.15625 624.378906 C 159.359375 623.445312 159.050781 622.949219 158.171875 622.640625 C 155.660156 621.757812 153.136719 620.933594 150.546875 620.316406 C 149.496094 620.066406 149.347656 620.171875 149.128906 621.261719 C 148.390625 624.984375 147.472656 628.667969 146.800781 632.402344 Z M 136.484375 683.699219 L 136.300781 683.664062 C 136.175781 684.328125 136.085938 684.996094 135.914062 685.648438 C 135.710938 686.40625 135.914062 686.8125 136.695312 687.09375 C 139.023438 687.933594 141.328125 688.84375 143.632812 689.746094 C 145.007812 690.28125 145.195312 690.210938 145.507812 688.789062 C 146.105469 686.070312 146.703125 683.355469 147.273438 680.628906 C 147.808594 678.066406 148.082031 678.414062 145.546875 677.484375 C 143.425781 676.703125 141.3125 675.894531 139.203125 675.078125 C 138.480469 674.796875 138.125 674.894531 137.980469 675.765625 C 137.53125 678.417969 136.992188 681.058594 136.488281 683.699219 Z M 148.515625 666.230469 C 148.652344 665.019531 148.878906 663.195312 149.253906 661.398438 C 149.394531 660.714844 149.113281 660.386719 148.488281 660.179688 C 147.183594 659.742188 145.886719 659.277344 144.609375 658.769531 C 143.929688 658.503906 143.65625 658.699219 143.566406 659.390625 C 143.25 661.785156 142.917969 664.175781 142.574219 666.570312 C 142.515625 666.980469 142.671875 667.183594 143.050781 667.320312 C 143.96875 667.65625 144.867188 668.046875 145.789062 668.371094 C 148.035156 669.160156 148.035156 669.148438 148.515625 666.230469 Z M 146.292969 645.703125 C 145.828125 645.613281 145.367188 645.597656 145.167969 646.167969 C 144.980469 646.703125 145 647.21875 145.554688 647.527344 C 146.011719 647.769531 146.484375 647.976562 146.972656 648.148438 C 147.3125 648.277344 147.722656 648.402344 147.988281 648.046875 C 148.269531 647.679688 148.246094 647.226562 148.011719 646.835938 C 147.625 646.203125 147.019531 645.863281 146.292969 645.703125 Z M 144.929688 652.1875 C 144.628906 652.136719 144.199219 651.996094 143.972656 652.46875 C 143.75 652.9375 143.722656 653.4375 144.132812 653.824219 C 144.675781 654.339844 145.375 654.597656 146.09375 654.734375 C 146.628906 654.835938 146.867188 654.488281 146.886719 653.980469 C 146.921875 653.089844 146.261719 652.464844 144.925781 652.191406 Z M 151.265625 647.441406 C 150.691406 647.28125 150.1875 647.386719 149.953125 647.957031 C 149.707031 648.554688 149.984375 649.042969 150.523438 649.332031 C 150.898438 649.53125 151.316406 649.644531 151.714844 649.789062 C 152.066406 649.917969 152.457031 650.054688 152.726562 649.703125 C 153.003906 649.34375 153.027344 648.902344 152.804688 648.492188 C 152.472656 647.882812 151.882812 647.632812 151.261719 647.441406 Z M 150.128906 656.132812 C 150.683594 656.207031 151.117188 656.441406 151.375 655.96875 C 151.644531 655.476562 151.523438 655.007812 151.128906 654.628906 C 150.722656 654.234375 150.242188 653.980469 149.6875 653.867188 C 149.210938 653.769531 148.722656 653.703125 148.519531 654.265625 C 148.316406 654.839844 148.421875 655.378906 149.015625 655.679688 C 149.421875 655.886719 149.863281 656.027344 150.128906 656.132812 Z M 150.128906 656.132812 " fill-opacity="1" fill-rule="nonzero"/></g></g></g><g clip-path="url(#9e495a24ef)"><g clip-path="url(#9ca0308fd0)"><g clip-path="url(#16c7c9309a)"><path fill="#c1ff72" d="M 81.601562 711.117188 C 82.734375 705.191406 83.863281 699.261719 84.996094 693.335938 C 85.246094 692.015625 85.257812 691.996094 86.503906 692.441406 C 93.671875 695.023438 100.839844 697.613281 108.003906 700.207031 C 115.140625 702.785156 122.277344 705.359375 129.417969 707.933594 C 131.722656 708.761719 134.023438 709.59375 136.332031 710.414062 C 136.9375 710.628906 137.148438 710.925781 136.851562 711.578125 C 136.628906 712.074219 136.5625 712.640625 136.460938 713.179688 C 135.023438 720.613281 133.660156 728.058594 132.140625 735.46875 C 131.179688 740.152344 130.304688 744.851562 129.359375 749.535156 C 129.128906 750.6875 129.082031 750.726562 127.992188 750.289062 C 120.179688 747.15625 112.371094 744.015625 104.5625 740.867188 C 96.136719 737.472656 87.710938 734.058594 79.265625 730.695312 C 78.339844 730.328125 78.113281 729.90625 78.308594 728.925781 C 79.484375 723.003906 80.59375 717.070312 81.726562 711.140625 Z M 83.535156 713.136719 L 83.507812 713.132812 C 82.777344 716.953125 82.046875 720.777344 81.320312 724.597656 C 80.863281 726.96875 81.558594 728.511719 83.679688 729.683594 C 84.351562 730.054688 85.039062 730.382812 85.75 730.667969 C 91.632812 733.027344 97.515625 735.359375 103.398438 737.714844 C 109.902344 740.324219 116.410156 742.917969 122.894531 745.574219 C 125.429688 746.609375 127.925781 744.980469 128.1875 742.726562 C 128.371094 741.152344 128.863281 739.621094 129.167969 738.054688 C 130.472656 731.382812 131.773438 724.707031 133.039062 718.023438 C 133.523438 715.457031 132.402344 713.429688 129.945312 712.449219 C 127.871094 711.625 125.761719 710.898438 123.65625 710.148438 C 112.5 706.1875 101.375 702.140625 90.277344 698.003906 C 89.503906 697.714844 88.722656 697.421875 87.890625 697.847656 C 86.683594 698.457031 86.144531 699.527344 85.902344 700.773438 C 85.097656 704.890625 84.320312 709.015625 83.535156 713.136719 Z M 83.535156 713.136719 " fill-opacity="1" fill-rule="nonzero"/></g></g></g><g clip-path="url(#4d192a0a1a)"><g clip-path="url(#11af0ac31d)"><g clip-path="url(#96fdf941d9)"><path fill="#c1ff72" d="M 79.703125 711.488281 C 78.515625 717.71875 77.324219 723.949219 76.136719 730.179688 C 75.890625 731.476562 75.886719 731.484375 77.125 731.980469 C 88.296875 736.441406 99.46875 740.902344 110.640625 745.363281 C 116.519531 747.722656 122.375 750.148438 128.238281 752.546875 C 128.699219 752.734375 129.167969 752.878906 129.667969 752.824219 C 130.355469 752.746094 130.761719 752.34375 130.925781 751.667969 C 131.199219 750.539062 131.410156 749.398438 131.628906 748.257812 C 133.933594 736.25 136.285156 724.253906 138.59375 712.246094 C 138.75 711.429688 139.078125 711.3125 139.765625 711.621094 C 140.4375 711.917969 141.121094 712.183594 141.8125 712.4375 C 142.375 712.644531 142.519531 712.992188 142.402344 713.578125 C 141.445312 718.480469 140.355469 723.351562 139.265625 728.222656 C 138.625 731.0625 138.101562 733.921875 137.449219 736.761719 C 136.398438 741.359375 135.542969 746.003906 134.519531 750.609375 C 134.035156 752.789062 133.570312 754.976562 133.121094 757.167969 C 132.84375 758.523438 132.828125 758.53125 131.519531 758.003906 C 124.878906 755.328125 118.234375 752.648438 111.589844 749.972656 C 99.152344 744.972656 86.710938 739.980469 74.261719 735 C 73.527344 734.707031 73.382812 734.332031 73.511719 733.609375 C 74.128906 730.207031 74.765625 726.800781 75.355469 723.390625 C 77.003906 713.914062 78.777344 704.457031 80.488281 694.988281 C 80.695312 693.84375 80.859375 692.691406 81.027344 691.539062 C 81.128906 690.851562 81.476562 690.695312 82.125 690.910156 C 83.554688 691.378906 83.5625 691.359375 83.269531 692.890625 L 79.71875 711.488281 Z M 79.703125 711.488281 " fill-opacity="1" fill-rule="nonzero"/></g></g></g><g clip-path="url(#47c4cd315f)"><g clip-path="url(#81b9e41886)"><g clip-path="url(#668a7a5ee8)"><path fill="#c1ff72" d="M 119.9375 615.96875 C 119.109375 615.273438 118.320312 615.144531 117.5625 614.914062 C 117.089844 614.769531 116.734375 615.070312 116.375 615.277344 C 112.652344 617.414062 108.9375 619.554688 105.222656 621.703125 C 105.144531 621.753906 105.066406 621.800781 104.984375 621.839844 C 104.714844 621.945312 104.472656 622.308594 104.167969 622.070312 C 103.917969 621.875 104.101562 621.550781 104.148438 621.289062 C 104.472656 619.542969 104.808594 617.796875 105.140625 616.054688 C 105.386719 614.757812 105.578125 613.449219 105.894531 612.171875 C 106.15625 611.117188 105.355469 611.085938 104.769531 610.894531 C 104.035156 610.652344 104.082031 611.304688 104.003906 611.714844 C 100.816406 628.421875 97.585938 645.125 94.484375 661.847656 C 93.382812 667.78125 92.234375 673.707031 91.167969 679.648438 C 91.109375 679.957031 90.847656 680.351562 91.191406 680.582031 C 91.453125 680.753906 91.769531 680.476562 92.039062 680.351562 C 96.21875 678.421875 100.121094 675.980469 104.136719 673.746094 C 105.847656 672.792969 107.539062 671.796875 109.214844 670.78125 C 109.683594 670.496094 110.0625 670.609375 110.507812 670.769531 C 114.449219 672.199219 118.394531 673.617188 122.34375 675.027344 C 122.601562 675.121094 122.871094 675.214844 123.140625 675.230469 C 124.253906 675.296875 124.257812 675.289062 124.050781 676.359375 C 123.101562 681.292969 122.148438 686.230469 121.195312 691.164062 C 121.148438 691.402344 121.089844 691.640625 121.019531 691.875 C 120.839844 692.46875 120.546875 692.695312 119.863281 692.464844 C 116.144531 691.230469 112.472656 689.871094 108.804688 688.496094 C 102.960938 686.300781 97.132812 684.0625 91.226562 682.03125 C 90.648438 681.832031 90.105469 681.519531 89.515625 681.371094 C 88.578125 681.128906 88.46875 680.605469 88.640625 679.730469 C 89.976562 672.871094 91.273438 666.007812 92.578125 659.140625 C 93.519531 654.203125 94.515625 649.277344 95.382812 644.328125 C 97.382812 632.917969 99.691406 621.5625 101.785156 610.171875 C 102.128906 608.304688 102.914062 607.886719 104.695312 608.476562 C 109.339844 610.019531 114.003906 611.515625 118.660156 613.027344 C 123.171875 614.492188 127.683594 615.949219 132.199219 617.402344 C 133.015625 617.667969 133.832031 617.925781 134.65625 618.160156 C 135.226562 618.324219 135.441406 618.636719 135.320312 619.246094 C 134.171875 624.890625 133.035156 630.535156 131.910156 636.1875 C 131.792969 636.777344 131.539062 636.9375 130.953125 636.742188 C 124.351562 634.578125 117.75 632.421875 111.140625 630.277344 C 108.785156 629.511719 106.425781 628.75 104.070312 627.976562 C 103.664062 627.839844 103.015625 627.886719 103.054688 627.257812 C 103.097656 626.527344 103.023438 625.710938 103.851562 625.238281 C 105.691406 624.191406 107.507812 623.109375 109.332031 622.039062 C 112.691406 620.074219 116.046875 618.109375 119.40625 616.140625 C 119.5625 616.050781 119.757812 616.023438 119.9375 615.96875 Z M 119.9375 615.96875 " fill-opacity="1" fill-rule="nonzero"/></g></g></g><g clip-path="url(#870aaef099)"><g clip-path="url(#844bad9c9d)"><g clip-path="url(#3bbe6c4a58)"><path fill="#c1ff72" d="M 129.789062 647.113281 C 129.308594 649.640625 128.832031 652.167969 128.339844 654.691406 C 128.132812 655.75 128.011719 655.792969 126.988281 655.433594 C 120.019531 652.949219 113.023438 650.546875 105.96875 648.308594 C 104.25 647.761719 102.542969 647.183594 100.832031 646.605469 C 100.335938 646.4375 99.679688 646.457031 99.519531 645.792969 C 99.339844 645.050781 99.878906 643.742188 100.488281 643.386719 C 101.945312 642.539062 103.410156 641.714844 104.875 640.878906 C 108.382812 638.878906 111.90625 636.894531 115.398438 634.863281 C 116.183594 634.40625 116.859375 634.367188 117.726562 634.65625 C 121.699219 635.988281 125.695312 637.242188 129.683594 638.515625 C 129.945312 638.597656 130.238281 638.710938 130.492188 638.667969 C 131.53125 638.488281 131.371094 639.074219 131.242188 639.722656 C 130.757812 642.1875 130.292969 644.65625 129.824219 647.121094 Z M 129.789062 647.113281 " fill-opacity="1" fill-rule="nonzero"/></g></g></g><g clip-path="url(#035dd18604)"><g clip-path="url(#753c928bf7)"><g clip-path="url(#e8c76b62f4)"><path fill="#c1ff72" d="M 126.300781 665.316406 C 125.578125 667.988281 125.226562 670.382812 124.746094 672.753906 C 124.632812 673.316406 124.523438 673.644531 123.796875 673.332031 C 120 671.707031 116.074219 670.417969 112.191406 669.007812 C 107.160156 667.183594 102.101562 665.425781 97.058594 663.628906 C 96.703125 663.5 96.230469 663.414062 96.265625 662.878906 C 96.304688 662.304688 96.355469 661.765625 96.992188 661.414062 C 101.277344 659.039062 105.613281 656.738281 109.789062 654.179688 C 111.554688 653.09375 112.96875 652.863281 114.972656 653.597656 C 118.609375 654.9375 122.300781 656.171875 125.988281 657.390625 C 126.304688 657.492188 126.660156 657.667969 126.957031 657.605469 C 127.804688 657.433594 127.722656 657.890625 127.617188 658.429688 C 127.152344 660.835938 126.699219 663.246094 126.300781 665.316406 Z M 126.300781 665.316406 " fill-opacity="1" fill-rule="nonzero"/></g></g></g><g clip-path="url(#4a3df8bbfc)"><g clip-path="url(#ecf189279b)"><g clip-path="url(#45814197e9)"><path fill="#c1ff72" d="M 94.617188 671.222656 C 94.925781 669.601562 95.246094 667.976562 95.542969 666.351562 C 95.660156 665.707031 95.960938 665.554688 96.574219 665.792969 C 99.652344 666.984375 102.738281 668.152344 105.824219 669.332031 C 106.035156 669.414062 106.371094 669.398438 106.363281 669.726562 C 106.355469 669.964844 106.089844 670.035156 105.910156 670.136719 C 102.09375 672.347656 98.277344 674.550781 94.460938 676.753906 C 94.253906 676.871094 94.015625 677.082031 93.789062 676.941406 C 93.507812 676.773438 93.609375 676.449219 93.65625 676.183594 C 93.96875 674.527344 94.285156 672.875 94.601562 671.222656 Z M 94.617188 671.222656 " fill-opacity="1" fill-rule="nonzero"/></g></g></g><g clip-path="url(#901e399f97)"><g clip-path="url(#3c0763e509)"><g clip-path="url(#4eb9b787f2)"><path fill="#c1ff72" d="M 101.484375 635.195312 C 101.765625 633.722656 102.078125 632.253906 102.316406 630.773438 C 102.449219 629.957031 102.796875 629.769531 103.570312 630.03125 C 106.519531 631.03125 109.480469 631.996094 112.4375 632.980469 C 112.6875 633.0625 113.058594 633.023438 113.117188 633.347656 C 113.1875 633.730469 112.789062 633.824219 112.539062 633.960938 C 109.371094 635.75 106.199219 637.535156 103.023438 639.308594 C 102.460938 639.625 101.90625 639.949219 101.339844 640.25 C 101.136719 640.359375 100.914062 640.585938 100.675781 640.390625 C 100.453125 640.207031 100.585938 639.929688 100.628906 639.699219 C 100.910156 638.199219 101.199219 636.695312 101.484375 635.195312 Z M 101.484375 635.195312 " fill-opacity="1" fill-rule="nonzero"/></g></g></g><g clip-path="url(#edb07a4817)"><g clip-path="url(#c16eba6ad5)"><g clip-path="url(#c95aa69c1b)"><path fill="#c1ff72" d="M 98.003906 653.484375 C 98.277344 652.042969 98.574219 650.601562 98.820312 649.15625 C 98.929688 648.503906 99.210938 648.34375 99.820312 648.554688 C 102.671875 649.554688 105.53125 650.535156 108.386719 651.523438 C 108.589844 651.59375 108.847656 651.660156 108.863281 651.894531 C 108.882812 652.132812 108.621094 652.222656 108.441406 652.328125 C 104.894531 654.375 101.347656 656.425781 97.796875 658.46875 C 97.625 658.570312 97.4375 658.765625 97.21875 658.59375 C 97.019531 658.433594 97.117188 658.191406 97.15625 657.992188 C 97.4375 656.488281 97.726562 654.988281 98.011719 653.488281 Z M 98.003906 653.484375 " fill-opacity="1" fill-rule="nonzero"/></g></g></g><g clip-path="url(#83238fde31)"><g clip-path="url(#22c5e9c568)"><g clip-path="url(#17355b47e3)"><path fill="#c1ff72" d="M 85.539062 713.054688 C 86.324219 708.929688 87.113281 704.808594 87.898438 700.6875 C 88.128906 699.46875 88.1875 699.453125 89.316406 699.863281 C 100.40625 703.917969 111.5 707.96875 122.59375 712.015625 C 124.75 712.800781 126.929688 713.519531 129.109375 714.238281 C 130.683594 714.757812 131.421875 715.886719 131.148438 717.550781 C 130.929688 718.882812 130.648438 720.203125 130.394531 721.527344 C 129.109375 728.265625 127.765625 734.996094 126.558594 741.75 C 126.128906 744.160156 124.894531 744.078125 123.390625 743.488281 C 118.035156 741.378906 112.699219 739.234375 107.34375 737.128906 C 100.28125 734.351562 93.269531 731.449219 86.15625 728.808594 C 85.753906 728.660156 85.359375 728.488281 84.976562 728.296875 C 83.21875 727.433594 82.910156 726.796875 83.277344 724.878906 C 84.035156 720.9375 84.789062 716.996094 85.539062 713.054688 Z M 85.539062 713.054688 " fill-opacity="1" fill-rule="nonzero"/></g></g></g><g clip-path="url(#4ed9a27baa)"><g clip-path="url(#a8502951e1)"><g clip-path="url(#3410544c72)"><path fill="#000000" d="M 1428.664062 264.703125 C 1428.804688 265.503906 1428.769531 266.375 1428.648438 267.179688 C 1427.332031 275.695312 1423.144531 282.402344 1416.050781 287.359375 C 1410.492188 291.238281 1404.589844 294.464844 1398.425781 297.238281 C 1392.78125 299.785156 1387.007812 301.976562 1381.046875 303.628906 C 1371.324219 306.324219 1361.476562 308.175781 1351.324219 307.964844 C 1346.585938 307.871094 1341.917969 307.386719 1337.464844 305.65625 C 1333.394531 304.074219 1329.804688 301.792969 1326.882812 298.515625 C 1325.792969 297.285156 1324.988281 295.957031 1324.613281 294.292969 C 1324.15625 292.253906 1323.40625 290.285156 1322.808594 288.273438 C 1317.601562 270.859375 1312.394531 253.441406 1307.21875 236.019531 C 1302.015625 218.492188 1296.824219 200.964844 1291.664062 183.425781 C 1289.773438 176.988281 1289.910156 178.003906 1292.425781 172.355469 C 1293.214844 170.585938 1294.121094 168.867188 1294.957031 167.125 C 1295.207031 166.609375 1295.425781 166.085938 1295.710938 165.453125 C 1294.585938 164.640625 1293.980469 163.703125 1293.675781 162.542969 C 1293.332031 161.246094 1293.5 160.074219 1294.261719 158.957031 C 1296.050781 156.308594 1298.4375 154.28125 1301 152.449219 C 1305.570312 149.175781 1310.546875 146.632812 1315.691406 144.390625 C 1323.207031 141.117188 1330.96875 138.578125 1338.890625 136.5625 C 1349.886719 133.777344 1361.03125 132.019531 1372.421875 132.441406 C 1374.09375 132.5 1375.753906 132.777344 1377.421875 132.886719 C 1381.402344 133.132812 1383.140625 136.066406 1382.164062 139.78125 C 1382.632812 140.09375 1383.136719 140.449219 1383.660156 140.777344 C 1386.371094 142.464844 1389.078125 144.167969 1391.800781 145.828125 C 1392.839844 146.457031 1393.503906 147.371094 1393.921875 148.46875 C 1394.382812 149.6875 1394.835938 150.917969 1395.210938 152.171875 C 1406.058594 188.578125 1416.894531 224.976562 1427.734375 261.382812 C 1428.066406 262.476562 1428.464844 263.570312 1428.664062 264.703125 Z M 1428.664062 264.703125 " fill-opacity="1" fill-rule="nonzero"/></g></g></g><g clip-path="url(#a82af5af3a)"><g clip-path="url(#e8ffad7d42)"><g clip-path="url(#655c5d6682)"><path fill="#9d7ad9" d="M 1397.5625 164.171875 C 1392.628906 169.683594 1387.460938 174.886719 1381.996094 179.765625 C 1367.257812 192.941406 1351.242188 204.410156 1334.511719 214.90625 C 1325.683594 220.441406 1316.582031 225.457031 1307.253906 230.085938 C 1307.167969 230.128906 1307.054688 230.105469 1306.753906 230.128906 C 1306.59375 229.589844 1306.417969 229.011719 1306.246094 228.425781 C 1301.679688 213.160156 1297.117188 197.902344 1292.550781 182.648438 C 1292.105469 181.144531 1291.414062 179.699219 1291.542969 178.074219 C 1291.585938 177.5625 1291.582031 177 1291.792969 176.550781 C 1293.449219 173.050781 1295.144531 169.570312 1296.816406 166.121094 C 1303.59375 167.433594 1310.265625 167.179688 1316.953125 166.621094 C 1327.441406 165.742188 1337.648438 163.464844 1347.59375 160.074219 C 1356.984375 156.871094 1365.984375 152.789062 1374.28125 147.285156 C 1376.902344 145.550781 1379.402344 143.644531 1381.273438 140.945312 C 1381.660156 141.140625 1382.035156 141.300781 1382.382812 141.507812 C 1385.261719 143.21875 1388.121094 144.96875 1391.027344 146.636719 C 1392.003906 147.195312 1392.632812 147.960938 1392.984375 148.980469 C 1393.316406 149.921875 1393.605469 150.875 1393.886719 151.820312 C 1394.949219 155.390625 1396 158.953125 1397.0625 162.519531 C 1397.234375 163.066406 1397.394531 163.613281 1397.5625 164.171875 Z M 1391.109375 149.523438 C 1390.832031 149.746094 1390.523438 149.910156 1390.320312 150.160156 C 1388.269531 152.640625 1385.835938 154.707031 1383.292969 156.640625 C 1372.199219 165.078125 1359.78125 170.863281 1346.453125 174.753906 C 1339.605469 176.75 1332.625 178.160156 1325.53125 178.910156 C 1315.511719 179.976562 1305.5 180.683594 1295.589844 178.046875 C 1295.359375 177.984375 1295.0625 178.140625 1294.6875 178.21875 C 1295.441406 179.382812 1296.5625 179.664062 1297.601562 179.851562 C 1300.117188 180.316406 1302.648438 180.804688 1305.195312 180.953125 C 1319.132812 181.796875 1332.773438 179.894531 1346.183594 176.226562 C 1355.523438 173.667969 1364.355469 169.828125 1372.753906 165.042969 C 1378.253906 161.910156 1383.523438 158.378906 1388.164062 154.015625 C 1389.1875 153.054688 1390.070312 151.933594 1390.976562 150.863281 C 1391.25 150.539062 1391.601562 150.128906 1391.109375 149.523438 Z M 1426.976562 262.957031 C 1426.683594 262.414062 1426.582031 261.765625 1426.402344 261.164062 C 1423.441406 251.21875 1420.480469 241.285156 1417.519531 231.339844 C 1417.367188 230.820312 1417.183594 230.320312 1416.960938 229.65625 C 1415.304688 231.566406 1413.875 233.289062 1412.363281 234.949219 C 1400.339844 248.078125 1386.289062 258.609375 1370.847656 267.367188 C 1363.109375 271.753906 1355.164062 275.746094 1347.074219 279.449219 C 1339.640625 282.855469 1332.125 286.007812 1323.871094 287.726562 C 1324.03125 288.269531 1324.175781 288.75 1324.316406 289.230469 C 1324.714844 290.585938 1325.15625 291.933594 1325.476562 293.308594 C 1325.5625 293.691406 1325.671875 294.058594 1325.804688 294.414062 C 1327.132812 295.277344 1328.65625 295.839844 1330.242188 296.167969 C 1330.257812 296.082031 1330.277344 295.984375 1330.292969 295.898438 C 1330.65625 295.882812 1331.03125 295.792969 1331.378906 295.84375 C 1341.339844 297.273438 1351.28125 296.914062 1361.257812 295.902344 C 1370.765625 294.9375 1379.863281 292.335938 1388.8125 289.199219 C 1397.269531 286.234375 1405.429688 282.582031 1413.054688 277.808594 C 1417.5625 274.988281 1421.582031 271.59375 1425.117188 267.625 C 1425.214844 267.511719 1425.359375 267.453125 1425.46875 267.378906 C 1425.574219 267.429688 1425.648438 267.480469 1425.710938 267.535156 C 1426.476562 266.746094 1427.09375 265.851562 1427.597656 264.890625 C 1427.515625 264.246094 1427.320312 263.597656 1426.976562 262.957031 Z M 1426.976562 262.957031 " fill-opacity="1" fill-rule="nonzero"/></g></g></g><g clip-path="url(#0b56675473)"><g clip-path="url(#a5d60788fc)"><g clip-path="url(#a79171c749)"><path fill="#c1ff72" d="M 1323.589844 286.558594 C 1323.398438 285.914062 1323.253906 285.425781 1323.089844 284.886719 C 1323.730469 284.695312 1324.308594 284.492188 1324.902344 284.355469 C 1330.621094 282.980469 1336.132812 280.980469 1341.578125 278.789062 C 1349.742188 275.492188 1357.648438 271.667969 1365.332031 267.378906 C 1380.097656 259.136719 1393.828125 249.457031 1406.148438 237.835938 C 1409.46875 234.707031 1412.601562 231.40625 1415.277344 227.699219 C 1415.484375 227.40625 1415.734375 227.144531 1416.007812 226.808594 C 1416.59375 227.617188 1416.613281 228.3125 1416.058594 229.011719 C 1415.636719 229.542969 1415.226562 230.089844 1414.792969 230.613281 C 1406.722656 240.121094 1397.464844 248.335938 1387.339844 255.574219 C 1379.542969 261.148438 1371.347656 266.082031 1362.816406 270.441406 C 1356.671875 273.585938 1350.453125 276.589844 1344.191406 279.492188 C 1337.859375 282.421875 1331.332031 284.828125 1324.511719 286.382812 C 1324.253906 286.4375 1324.007812 286.476562 1323.589844 286.558594 Z M 1396.910156 166.402344 C 1392.78125 171.210938 1388.289062 175.679688 1383.59375 179.9375 C 1369.441406 192.75 1354.046875 203.910156 1337.976562 214.179688 C 1329.730469 219.445312 1321.300781 224.394531 1312.5625 228.800781 C 1310.808594 229.691406 1309.019531 230.527344 1307.15625 231.425781 C 1307.339844 231.933594 1307.5 232.402344 1307.664062 232.867188 C 1307.949219 232.785156 1308.109375 232.761719 1308.242188 232.695312 C 1312.875 230.261719 1317.550781 227.917969 1322.117188 225.378906 C 1341.320312 214.703125 1359.320312 202.261719 1376.105469 188.082031 C 1383.582031 181.769531 1390.882812 175.257812 1397.515625 168.027344 C 1398.472656 166.980469 1398.472656 166.988281 1397.789062 165.515625 C 1397.476562 165.832031 1397.167969 166.09375 1396.910156 166.402344 Z M 1328.152344 270.265625 C 1329.039062 270.546875 1330 270.734375 1330.917969 270.707031 C 1336.546875 270.554688 1340.933594 268.039062 1344.132812 263.457031 C 1345.054688 262.136719 1345.421875 260.597656 1345.410156 258.988281 C 1345.386719 255.988281 1344.566406 253.214844 1342.972656 250.65625 C 1341.289062 247.96875 1338.878906 246.8125 1335.765625 247.3125 C 1333.394531 247.699219 1331.054688 248.296875 1328.6875 248.722656 C 1327.5625 248.925781 1326.398438 249.109375 1325.273438 249.035156 C 1321.160156 248.761719 1318.75 244.433594 1320.582031 240.726562 C 1321.628906 238.609375 1323.304688 237.152344 1325.464844 236.28125 C 1327.488281 235.464844 1329.519531 235.058594 1331.058594 237.214844 C 1331.894531 236.640625 1332.621094 236.140625 1333.351562 235.636719 C 1334.996094 234.5 1335.046875 233.628906 1333.46875 232.425781 C 1333.164062 232.191406 1332.710938 232.097656 1332.308594 232.046875 C 1328.382812 231.519531 1325.1875 233.140625 1322.207031 235.460938 C 1317.636719 239.011719 1317.875 244.238281 1319.578125 248.089844 C 1320.675781 250.566406 1322.53125 251.59375 1325.253906 251.398438 C 1326.191406 251.332031 1327.113281 251.128906 1328.035156 250.9375 C 1329.578125 250.617188 1331.089844 250.183594 1332.640625 249.925781 C 1336.476562 249.292969 1339.675781 250.867188 1341.324219 254.105469 C 1343.101562 257.601562 1342.644531 260.90625 1339.828125 263.5625 C 1338.898438 264.441406 1337.730469 265.132812 1336.554688 265.664062 C 1334.597656 266.539062 1332.84375 265.828125 1331.777344 263.929688 C 1331.6875 263.757812 1331.609375 263.578125 1331.492188 263.320312 C 1329.121094 264.152344 1327.433594 265.808594 1325.476562 267.257812 C 1325.839844 268.890625 1326.78125 269.832031 1328.152344 270.265625 Z M 1409.839844 219.078125 C 1407.335938 214.671875 1404.894531 210.222656 1402.304688 205.867188 C 1399.472656 201.105469 1396.511719 196.429688 1393.582031 191.722656 C 1393.269531 191.210938 1392.8125 190.78125 1392.402344 190.277344 C 1392 190.492188 1391.707031 190.605469 1391.472656 190.789062 C 1389.714844 192.1875 1387.984375 193.617188 1386.210938 194.996094 C 1385.53125 195.523438 1385.410156 196.042969 1385.65625 196.878906 C 1386.878906 200.878906 1388.03125 204.910156 1389.21875 208.925781 C 1391.515625 216.703125 1393.820312 224.480469 1396.125 232.257812 C 1396.164062 232.386719 1396.277344 232.492188 1396.460938 232.753906 C 1397.535156 231.773438 1398.550781 230.84375 1399.441406 230.019531 C 1398.394531 226.496094 1397.402344 223.195312 1396.433594 219.886719 C 1396.257812 219.285156 1396.191406 218.65625 1396.082031 218.035156 C 1395.976562 217.460938 1396.164062 217.054688 1396.664062 216.703125 C 1397.988281 215.769531 1399.257812 214.753906 1400.585938 213.828125 C 1401.070312 213.484375 1401.667969 213.292969 1402.371094 212.960938 C 1404.097656 216.125 1405.746094 219.167969 1407.492188 222.367188 C 1408.441406 221.441406 1409.261719 220.648438 1410.144531 219.789062 C 1409.996094 219.464844 1409.945312 219.257812 1409.839844 219.078125 Z M 1390.222656 200.410156 C 1389.863281 199.117188 1389.886719 199.109375 1390.945312 198.320312 C 1392.871094 196.882812 1393.023438 196.871094 1394.203125 198.972656 C 1395.902344 202.023438 1397.519531 205.121094 1399.136719 208.222656 C 1399.726562 209.347656 1399.632812 209.71875 1398.667969 210.511719 C 1397.738281 211.269531 1396.773438 211.984375 1395.800781 212.691406 C 1394.675781 213.507812 1394.148438 213.410156 1393.714844 212.117188 C 1392.980469 209.949219 1392.386719 207.730469 1391.730469 205.527344 C 1391.738281 205.527344 1391.738281 205.527344 1391.746094 205.523438 C 1391.226562 203.8125 1390.699219 202.121094 1390.222656 200.410156 Z M 1362.34375 224.65625 C 1361.203125 223.382812 1359.875 222.210938 1358.429688 221.308594 C 1354.988281 219.167969 1351.019531 219.59375 1347.953125 222.265625 C 1344.988281 224.839844 1343.4375 228.144531 1343.21875 232.027344 C 1342.894531 237.800781 1344.222656 243.25 1346.648438 248.464844 C 1347.695312 250.722656 1349.046875 252.738281 1350.847656 254.476562 C 1354.917969 258.402344 1360.5 257.894531 1364.972656 254.738281 C 1368.324219 252.375 1369.816406 248.816406 1369.675781 244.625 C 1369.570312 241.613281 1368.992188 238.703125 1368.542969 236.980469 C 1367.089844 231.65625 1365.21875 227.863281 1362.34375 224.65625 Z M 1366.050781 244.835938 C 1366.261719 246.679688 1365.808594 248.457031 1365.351562 250.242188 C 1364.691406 252.851562 1360.011719 255.511719 1357.398438 254.753906 C 1354.960938 254.046875 1353.054688 252.765625 1351.515625 250.820312 C 1350.046875 248.953125 1349.019531 246.84375 1348.152344 244.648438 C 1346.5625 240.617188 1345.675781 236.433594 1345.878906 232.089844 C 1345.949219 230.585938 1346.261719 229.089844 1346.628906 227.628906 C 1346.855469 226.738281 1347.324219 225.871094 1347.828125 225.089844 C 1349.597656 222.324219 1351.96875 221.742188 1354.828125 223.335938 C 1357.355469 224.742188 1359.226562 226.851562 1360.761719 229.253906 C 1362.539062 232.046875 1363.9375 235.015625 1365.015625 238.195312 C 1365.371094 240.410156 1365.789062 242.617188 1366.050781 244.835938 Z M 1383.398438 241.3125 C 1385.539062 238.703125 1386.914062 235.765625 1387.414062 232.40625 C 1388.414062 225.550781 1387.171875 219.066406 1384.253906 212.863281 C 1383.34375 210.917969 1382.15625 209.128906 1380.636719 207.570312 C 1378.394531 205.261719 1375.796875 204.628906 1372.753906 205.722656 C 1369.988281 206.714844 1367.695312 208.394531 1365.597656 210.417969 C 1364.296875 211.679688 1363.578125 212.914062 1364.898438 214.558594 C 1364.925781 214.597656 1364.941406 214.652344 1364.957031 214.703125 C 1366.925781 219.832031 1368.9375 224.949219 1370.847656 230.105469 C 1372.847656 235.503906 1374.746094 240.949219 1376.683594 246.367188 C 1376.738281 246.515625 1376.832031 246.640625 1376.992188 246.929688 C 1379.636719 245.496094 1381.601562 243.496094 1383.398438 241.3125 Z M 1377.664062 238.96875 C 1374.585938 230.679688 1371.535156 222.378906 1368.476562 214.082031 C 1368.441406 213.984375 1368.410156 213.882812 1368.375 213.785156 C 1367.5625 211.335938 1367.5625 211.335938 1369.566406 209.742188 C 1372.167969 207.683594 1374.71875 207.71875 1377.207031 209.921875 C 1377.941406 210.578125 1378.652344 211.316406 1379.183594 212.140625 C 1381.335938 215.496094 1383.175781 219.046875 1384.113281 222.9375 C 1385.671875 229.414062 1384.835938 235.511719 1380.769531 240.972656 C 1380.414062 241.453125 1379.945312 241.855469 1379.242188 242.597656 C 1378.605469 241.148438 1378.078125 240.082031 1377.664062 238.96875 Z M 1377.664062 238.96875 " fill-opacity="1" fill-rule="nonzero"/></g></g></g><g clip-path="url(#431e17e200)"><g clip-path="url(#15214c03e0)"><g clip-path="url(#37760e0153)"><path fill="#c1ff72" d="M 1427.585938 264.894531 C 1427.703125 265.863281 1427.5625 266.855469 1427.273438 267.839844 C 1426.589844 270.203125 1425.992188 272.601562 1425.105469 274.886719 C 1423.496094 278.996094 1420.554688 282.128906 1417.167969 284.851562 C 1412.914062 288.277344 1408.207031 291.011719 1403.347656 293.46875 C 1397.261719 296.546875 1391 299.1875 1384.480469 301.207031 C 1373.371094 304.660156 1362.089844 307.003906 1350.375 306.644531 C 1345.085938 306.484375 1339.953125 305.671875 1335.1875 303.230469 C 1332.21875 301.710938 1329.589844 299.753906 1327.4375 297.1875 C 1326.726562 296.339844 1326.171875 295.433594 1325.796875 294.414062 C 1327.125 295.28125 1328.648438 295.839844 1330.234375 296.167969 C 1330.222656 296.214844 1330.214844 296.265625 1330.210938 296.308594 C 1330.648438 296.519531 1331.066406 296.820312 1331.53125 296.929688 C 1332.542969 297.167969 1333.578125 297.359375 1334.609375 297.492188 C 1341.753906 298.394531 1348.910156 298.234375 1356.066406 297.691406 C 1361.703125 297.265625 1367.328125 296.621094 1372.828125 295.296875 C 1379.144531 293.777344 1385.335938 291.820312 1391.417969 289.519531 C 1398.1875 286.960938 1404.75 283.976562 1411.011719 280.347656 C 1415.832031 277.554688 1420.34375 274.367188 1424.152344 270.257812 C 1424.683594 269.683594 1425.179688 269.074219 1425.644531 268.4375 C 1425.847656 268.15625 1426.007812 267.816406 1425.699219 267.539062 C 1426.46875 266.746094 1427.085938 265.859375 1427.585938 264.894531 Z M 1374.957031 140.789062 C 1374.324219 141.253906 1373.667969 141.6875 1373.007812 142.105469 C 1362.828125 148.589844 1351.832031 153.292969 1340.394531 157.007812 C 1331.589844 159.863281 1322.546875 161.582031 1313.308594 162.15625 C 1307.191406 162.535156 1301.082031 162.71875 1295.046875 161.265625 C 1294.976562 161.246094 1294.867188 161.351562 1294.78125 161.394531 C 1295.144531 163.984375 1295.875 164.816406 1298.371094 165.101562 C 1300.863281 165.390625 1303.363281 165.667969 1305.875 165.722656 C 1317.152344 165.957031 1328.203125 164.265625 1339.074219 161.367188 C 1347.5 159.121094 1355.621094 156.050781 1363.421875 152.144531 C 1367.867188 149.914062 1372.214844 147.515625 1376.175781 144.472656 C 1377.886719 143.164062 1379.457031 141.714844 1380.691406 139.925781 C 1381.613281 138.597656 1381.523438 137.144531 1380.429688 135.695312 C 1379.003906 137.84375 1376.96875 139.308594 1374.957031 140.789062 Z M 1359.246094 137.367188 C 1348.351562 138.484375 1337.75 140.949219 1327.488281 144.8125 C 1317.242188 148.671875 1307.664062 153.734375 1298.9375 160.347656 C 1298.964844 160.476562 1299.007812 160.613281 1299.035156 160.742188 C 1301.027344 160.871094 1303.019531 160.996094 1305.003906 161.125 C 1305.265625 158.757812 1305.71875 157.96875 1307.570312 156.714844 C 1309.96875 155.085938 1312.636719 153.988281 1315.371094 153.085938 C 1321.734375 150.988281 1328.230469 149.425781 1334.960938 148.96875 C 1335.792969 147.699219 1337.042969 146.925781 1338.320312 146.21875 C 1344.339844 142.890625 1350.699219 140.359375 1357.25 138.296875 C 1357.9375 138.085938 1358.625 137.890625 1359.3125 137.683594 C 1359.296875 137.574219 1359.277344 137.472656 1359.246094 137.367188 Z M 1298.871094 159.007812 C 1308.402344 152.035156 1318.746094 146.597656 1329.921875 142.804688 C 1333.984375 141.425781 1338.109375 140.171875 1342.277344 139.179688 C 1346.652344 138.132812 1351.082031 137.269531 1355.53125 136.648438 C 1363.023438 135.605469 1370.542969 135.714844 1378.210938 136.640625 C 1378.570312 136.117188 1378.960938 135.535156 1379.484375 134.765625 C 1378.71875 134.585938 1378.175781 134.410156 1377.632812 134.34375 C 1376.074219 134.160156 1374.515625 133.953125 1372.953125 133.871094 C 1365.175781 133.445312 1357.484375 134.253906 1349.839844 135.570312 C 1342.597656 136.820312 1335.492188 138.605469 1328.519531 140.917969 C 1321.308594 143.308594 1314.222656 146.046875 1307.566406 149.757812 C 1303.90625 151.804688 1300.375 154.050781 1297.402344 157.058594 C 1296.566406 157.90625 1295.832031 158.84375 1294.898438 159.921875 C 1295.828125 160.128906 1296.484375 160.265625 1297.148438 160.414062 C 1297.738281 159.925781 1298.289062 159.4375 1298.871094 159.007812 Z M 1330.773438 150.53125 C 1324.519531 151.632812 1318.332031 152.984375 1312.484375 155.539062 C 1310.777344 156.285156 1309.164062 157.296875 1307.585938 158.304688 C 1306.683594 158.882812 1306.105469 159.769531 1306.4375 161.042969 C 1306.980469 161.0625 1307.492188 161.105469 1308.003906 161.09375 C 1314.609375 160.949219 1321.128906 160.140625 1327.636719 159.011719 C 1331.003906 158.425781 1333.304688 156.34375 1335.867188 154.59375 C 1335.390625 152.992188 1334.960938 151.550781 1334.46875 149.890625 C 1333.230469 150.105469 1332 150.3125 1330.773438 150.53125 Z M 1354.832031 146.03125 C 1354.683594 145.59375 1354.671875 145.105469 1354.558594 144.648438 C 1354.242188 143.3125 1354.761719 142.421875 1355.980469 141.871094 C 1358.460938 140.757812 1360.972656 139.707031 1363.660156 139.1875 C 1365.878906 138.753906 1367.113281 139.460938 1367.863281 141.605469 C 1368.070312 142.183594 1368.222656 142.785156 1368.398438 143.378906 C 1369.527344 142.828125 1369.585938 142.773438 1369.605469 142.019531 C 1369.691406 139.46875 1367.757812 137.617188 1365.214844 137.867188 C 1364.183594 137.96875 1363.144531 138.164062 1362.128906 138.40625 C 1356.515625 139.734375 1351.089844 141.667969 1345.828125 144.019531 C 1343.019531 145.269531 1340.28125 146.707031 1337.59375 148.199219 C 1335.917969 149.132812 1335.738281 149.875 1336.128906 151.742188 C 1336.644531 154.183594 1337.214844 154.640625 1339.679688 154.269531 C 1341.433594 154.007812 1343.164062 153.558594 1344.90625 153.203125 C 1349.539062 152.257812 1354.027344 150.914062 1358.175781 148.675781 C 1356.109375 148.570312 1355.550781 148.148438 1354.832031 146.03125 Z M 1342.628906 149.125 C 1343.007812 149.761719 1342.894531 150.515625 1342.289062 151.121094 C 1341.578125 151.832031 1340.710938 152.128906 1339.707031 151.953125 C 1338.425781 151.730469 1337.984375 150.636719 1338.847656 149.640625 C 1339.3125 149.105469 1339.972656 148.746094 1340.25 148.523438 C 1341.507812 148.132812 1342.183594 148.371094 1342.628906 149.125 Z M 1366 140.886719 C 1365.675781 140.566406 1365.09375 140.230469 1364.679688 140.296875 C 1361.71875 140.730469 1358.957031 141.84375 1356.242188 143.078125 C 1355.660156 143.339844 1355.5 143.765625 1355.597656 144.339844 C 1355.785156 145.476562 1356.109375 146.566406 1356.886719 147.441406 C 1359.207031 147.183594 1364.898438 145.097656 1367.015625 143.722656 C 1366.980469 142.679688 1366.765625 141.65625 1366 140.886719 Z M 1376.664062 137.515625 C 1374.066406 137.382812 1371.46875 137.257812 1368.53125 137.109375 C 1370.074219 138.613281 1370.832031 140.09375 1370.699219 142.097656 C 1372.945312 140.742188 1374.964844 139.4375 1376.664062 137.515625 Z M 1339.496094 155.417969 C 1339.03125 155.425781 1338.5625 155.46875 1338.097656 155.441406 C 1336.554688 155.371094 1335.558594 155.871094 1334.5 157.363281 C 1336.683594 156.714844 1338.765625 156.09375 1341.042969 155.417969 C 1340.398438 155.421875 1339.953125 155.414062 1339.496094 155.417969 Z M 1341.515625 149.445312 C 1340.332031 149.4375 1340.332031 149.4375 1339.5 150.617188 C 1341.039062 150.929688 1341.402344 150.699219 1341.515625 149.445312 Z M 1341.515625 149.445312 " fill-opacity="1" fill-rule="nonzero"/></g></g></g><g clip-path="url(#e4adcd8875)"><g clip-path="url(#2f06d94e05)"><g clip-path="url(#fb11e127dd)"><path fill="#c1ff72" d="M 1322.714844 283.507812 C 1317.824219 267.066406 1312.929688 250.617188 1308.042969 234.195312 C 1324.910156 225.75 1341.050781 216.238281 1356.214844 205.121094 C 1371.328125 194.035156 1385.820312 182.234375 1398.703125 168.3125 C 1398.871094 168.769531 1399.035156 169.128906 1399.148438 169.503906 C 1404.5625 187.730469 1409.976562 205.953125 1415.414062 224.171875 C 1415.679688 225.066406 1415.5625 225.699219 1414.988281 226.457031 C 1410.378906 232.484375 1404.875 237.621094 1399.148438 242.527344 C 1387.753906 252.304688 1375.339844 260.585938 1362.140625 267.730469 C 1354.910156 271.648438 1347.472656 275.121094 1339.847656 278.183594 C 1334.445312 280.347656 1328.902344 282.101562 1323.253906 283.503906 C 1323.109375 283.539062 1322.949219 283.503906 1322.714844 283.507812 Z M 1334.941406 271.367188 C 1337.621094 270.539062 1339.960938 269.367188 1341.980469 267.664062 C 1344.628906 265.429688 1346.582031 262.738281 1346.632812 259.109375 C 1346.675781 255.734375 1345.753906 252.582031 1343.890625 249.753906 C 1341.980469 246.855469 1339.269531 245.550781 1335.832031 246.027344 C 1333.710938 246.3125 1331.628906 246.851562 1329.515625 247.195312 C 1328.082031 247.433594 1326.609375 247.757812 1325.179688 247.65625 C 1322.332031 247.457031 1320.527344 244.390625 1321.617188 241.75 C 1322.695312 239.140625 1324.753906 237.628906 1327.476562 237.015625 C 1328.371094 236.8125 1329.203125 236.96875 1329.867188 237.773438 C 1330.597656 238.65625 1330.699219 238.640625 1331.699219 238.046875 C 1332.644531 237.480469 1333.550781 236.875 1334.460938 236.253906 C 1336.34375 234.972656 1336.46875 233.597656 1334.78125 232.078125 C 1334.289062 231.636719 1333.667969 231.199219 1333.046875 231.082031 C 1331.933594 230.863281 1330.75 230.710938 1329.632812 230.828125 C 1325.355469 231.285156 1322 233.507812 1319.210938 236.667969 C 1318.074219 237.957031 1317.484375 239.539062 1317.257812 241.230469 C 1316.953125 243.554688 1317.183594 245.816406 1318.066406 248.015625 C 1319.460938 251.492188 1321.75 252.953125 1325.519531 252.699219 C 1326.246094 252.644531 1326.96875 252.515625 1327.683594 252.359375 C 1329.371094 251.988281 1331.039062 251.523438 1332.734375 251.199219 C 1336.132812 250.5625 1338.738281 251.785156 1340.265625 254.640625 C 1341.796875 257.496094 1341.464844 260.238281 1339.171875 262.554688 C 1338.492188 263.238281 1337.601562 263.765625 1336.734375 264.226562 C 1334.875 265.207031 1333.546875 264.808594 1332.597656 262.949219 C 1332.261719 262.289062 1331.800781 262.132812 1331.214844 262.230469 C 1330.65625 262.332031 1330.070312 262.5 1329.605469 262.800781 C 1328.191406 263.695312 1326.792969 264.617188 1325.46875 265.632812 C 1324.257812 266.566406 1324.128906 267.617188 1324.886719 268.960938 C 1325.769531 270.53125 1327.164062 271.367188 1328.90625 271.691406 C 1330.984375 272.0625 1333.050781 271.863281 1334.941406 271.367188 Z M 1401.894531 214.304688 C 1402.199219 214.828125 1402.417969 215.179688 1402.617188 215.542969 C 1403.886719 217.890625 1405.140625 220.238281 1406.433594 222.570312 C 1407.011719 223.605469 1407.496094 223.699219 1408.4375 222.996094 C 1408.902344 222.652344 1409.3125 222.242188 1409.714844 221.839844 C 1411.375 220.191406 1411.511719 219.601562 1410.34375 217.578125 C 1405.925781 209.925781 1401.492188 202.28125 1397.003906 194.671875 C 1396.050781 193.058594 1394.878906 191.566406 1393.730469 190.070312 C 1393.035156 189.164062 1392.308594 188.972656 1391.5625 189.519531 C 1389.296875 191.191406 1387.066406 192.933594 1384.851562 194.664062 C 1384.253906 195.136719 1384.199219 195.742188 1384.421875 196.492188 C 1385.765625 200.957031 1387.050781 205.433594 1388.355469 209.910156 C 1390.496094 217.246094 1392.640625 224.585938 1394.78125 231.921875 C 1394.917969 232.371094 1395.039062 232.835938 1395.214844 233.265625 C 1395.578125 234.164062 1395.964844 234.351562 1396.753906 233.765625 C 1397.835938 232.953125 1398.8125 232 1399.804688 231.082031 C 1400.492188 230.453125 1400.601562 229.707031 1400.3125 228.796875 C 1399.320312 225.648438 1398.386719 222.484375 1397.429688 219.328125 C 1397.285156 218.839844 1397.136719 218.34375 1396.996094 217.871094 C 1398.679688 216.65625 1400.238281 215.515625 1401.894531 214.304688 Z M 1369.386719 235.414062 C 1368.628906 232.84375 1367.683594 230.351562 1366.304688 228.046875 C 1364.515625 225.0625 1362.480469 222.285156 1359.488281 220.371094 C 1355.417969 217.753906 1350.640625 218.113281 1347.007812 221.320312 C 1343.644531 224.296875 1342 228.125 1341.875 232.558594 C 1341.699219 238.484375 1343.109375 244.074219 1345.652344 249.410156 C 1346.796875 251.796875 1348.253906 253.949219 1350.253906 255.699219 C 1352.664062 257.804688 1355.445312 258.882812 1358.648438 258.320312 C 1360.226562 258.050781 1361.792969 257.542969 1363.292969 256.949219 C 1364.390625 256.515625 1365.507812 255.929688 1366.386719 255.152344 C 1369.589844 252.3125 1371.066406 248.699219 1370.894531 244.382812 C 1370.765625 241.316406 1370.164062 238.355469 1369.386719 235.414062 Z M 1387.414062 217.484375 C 1386.96875 216.292969 1386.503906 214.84375 1385.886719 213.457031 C 1384.664062 210.722656 1383.136719 208.167969 1380.878906 206.125 C 1379.023438 204.453125 1376.824219 203.609375 1374.375 204.085938 C 1369.800781 204.972656 1366.265625 207.550781 1363.515625 211.257812 C 1363.042969 211.894531 1362.972656 212.585938 1363.324219 213.324219 C 1363.640625 213.984375 1363.945312 214.652344 1364.199219 215.339844 C 1367.257812 223.636719 1370.300781 231.945312 1373.34375 240.246094 C 1374.058594 242.214844 1374.730469 244.199219 1375.445312 246.160156 C 1376.210938 248.265625 1376.964844 248.515625 1378.8125 247.3125 C 1381.035156 245.871094 1382.839844 243.996094 1384.496094 241.949219 C 1386.683594 239.246094 1388.085938 236.210938 1388.636719 232.761719 C 1389.441406 227.65625 1388.839844 222.667969 1387.414062 217.484375 Z M 1394.746094 212.039062 C 1396.0625 211.019531 1397.261719 210.082031 1398.449219 209.15625 C 1397.453125 207.285156 1396.53125 205.53125 1395.589844 203.792969 C 1394.632812 202.03125 1393.894531 200.132812 1392.539062 198.566406 C 1392.003906 198.921875 1391.574219 199.207031 1391.035156 199.5625 C 1392.285156 203.761719 1393.496094 207.832031 1394.746094 212.039062 Z M 1361.765625 233.675781 C 1360.558594 231.105469 1359.167969 228.625 1357.058594 226.683594 C 1356 225.699219 1354.785156 224.835938 1353.503906 224.152344 C 1352.023438 223.367188 1350.652344 223.726562 1349.550781 225.003906 C 1349.011719 225.628906 1348.566406 226.367188 1348.214844 227.109375 C 1347.460938 228.691406 1347.226562 230.402344 1347.15625 232.140625 C 1347.042969 235.152344 1347.472656 238.105469 1348.304688 240.980469 C 1349.242188 244.210938 1350.457031 247.332031 1352.546875 250.023438 C 1353.863281 251.722656 1355.476562 253.050781 1357.636719 253.472656 C 1358.476562 253.628906 1359.445312 253.667969 1360.246094 253.414062 C 1362.542969 252.699219 1364.136719 251.21875 1364.46875 248.699219 C 1364.628906 247.457031 1364.902344 246.199219 1364.796875 244.972656 C 1364.613281 242.84375 1364.183594 240.738281 1363.917969 239.019531 C 1363.101562 236.964844 1362.511719 235.285156 1361.765625 233.675781 Z M 1379.523438 240.492188 C 1379.832031 240.148438 1380.015625 239.96875 1380.152344 239.773438 C 1383.503906 235.121094 1384.300781 229.945312 1383.328125 224.398438 C 1382.710938 220.886719 1381.152344 217.742188 1379.46875 214.671875 C 1378.703125 213.273438 1377.707031 211.933594 1376.566406 210.816406 C 1374.589844 208.902344 1372.542969 208.890625 1370.34375 210.507812 C 1369.796875 210.910156 1369.308594 211.375 1368.605469 211.976562 C 1372.246094 221.496094 1375.847656 230.90625 1379.523438 240.492188 Z M 1379.523438 240.492188 " fill-opacity="1" fill-rule="nonzero"/></g></g></g><g fill="#c1ff72" fill-opacity="1"><g transform="translate(258.596595, 112.087437)"><g><path d="M 16.171875 -0.109375 L 7.921875 -0.109375 L 7.921875 -78 L 16.171875 -78 L 16.171875 -40.8125 L 47.859375 -78.109375 L 57.765625 -78.109375 L 33.109375 -48.515625 L 64.140625 0 L 54.125 0 L 27.71875 -42.03125 L 16.171875 -28.046875 Z M 16.171875 -0.109375 "/></g></g></g><g fill="#c1ff72" fill-opacity="1"><g transform="translate(320.418399, 112.087437)"><g><path d="M 10.015625 0 L 10.015625 -78.109375 L 58.3125 -78.109375 L 58.3125 -70.40625 L 18.265625 -70.40625 L 18.265625 -45.21875 L 56.4375 -45.21875 L 56.4375 -36.96875 L 18.265625 -36.96875 L 18.265625 -7.703125 L 58.3125 -7.703125 L 58.3125 0 Z M 10.015625 0 "/></g></g></g><g fill="#c1ff72" fill-opacity="1"><g transform="translate(382.240204, 112.087437)"><g><path d="M 61.828125 0 L 51.265625 0 L 31.6875 -35.421875 L 16.71875 -35.421875 L 16.71875 0 L 8.46875 0 L 8.46875 -78.109375 L 37.953125 -78.109375 C 44.921875 -78.109375 50.289062 -76.253906 54.0625 -72.546875 C 57.84375 -68.847656 59.734375 -63.515625 59.734375 -56.546875 C 59.734375 -50.535156 58.210938 -45.734375 55.171875 -42.140625 C 52.128906 -38.546875 47.785156 -36.378906 42.140625 -35.640625 Z M 16.71875 -70.40625 L 16.71875 -43.125 L 37.953125 -43.125 C 42.429688 -43.125 45.84375 -44.28125 48.1875 -46.59375 C 50.53125 -48.90625 51.628906 -52.222656 51.484375 -56.546875 C 51.484375 -61.023438 50.3125 -64.453125 47.96875 -66.828125 C 45.625 -69.210938 42.285156 -70.40625 37.953125 -70.40625 Z M 16.71875 -70.40625 "/></g></g></g><g fill="#c1ff72" fill-opacity="1"><g transform="translate(444.062009, 112.087437)"><g><path d="M 7.8125 0 L 7.8125 -78.109375 L 58.09375 -78.109375 L 58.203125 0 L 49.953125 0 L 49.84375 -70.40625 L 16.0625 -70.40625 L 16.0625 0 Z M 7.8125 0 "/></g></g></g><g fill="#c1ff72" fill-opacity="1"><g transform="translate(505.883813, 112.087437)"><g/></g></g><g fill="#c1ff72" fill-opacity="1"><g transform="translate(567.705618, 112.087437)"><g><path d="M 34.109375 -5.828125 C 43.710938 -5.828125 49.429688 -12.394531 51.265625 -25.53125 L 59.515625 -25.53125 C 57.242188 -7.1875 48.773438 1.945312 34.109375 1.875 C 24.941406 1.800781 17.863281 -1.789062 12.875 -8.90625 C 7.882812 -16.019531 5.390625 -26.109375 5.390625 -39.171875 C 5.390625 -52.296875 7.847656 -62.414062 12.765625 -69.53125 C 17.679688 -76.644531 24.6875 -80.203125 33.78125 -80.203125 C 48.738281 -80.203125 57.425781 -71.035156 59.84375 -52.703125 L 51.59375 -52.703125 C 49.976562 -65.898438 43.925781 -72.5 33.4375 -72.5 C 27.28125 -72.5 22.53125 -69.617188 19.1875 -63.859375 C 15.851562 -58.109375 14.1875 -49.878906 14.1875 -39.171875 C 14.1875 -28.535156 15.910156 -20.316406 19.359375 -14.515625 C 22.804688 -8.722656 27.722656 -5.828125 34.109375 -5.828125 Z M 34.109375 -5.828125 "/></g></g></g><g fill="#c1ff72" fill-opacity="1"><g transform="translate(629.527423, 112.087437)"><g><path d="M 3.40625 -39.0625 C 3.40625 -52.1875 5.878906 -62.269531 10.828125 -69.3125 C 15.785156 -76.351562 22.847656 -79.910156 32.015625 -79.984375 C 41.179688 -80.054688 48.222656 -76.550781 53.140625 -69.46875 C 58.054688 -62.394531 60.515625 -52.257812 60.515625 -39.0625 C 60.515625 -25.851562 58.054688 -15.707031 53.140625 -8.625 C 48.222656 -1.550781 41.179688 1.945312 32.015625 1.875 C 22.847656 1.800781 15.785156 -1.769531 10.828125 -8.84375 C 5.878906 -15.925781 3.40625 -26 3.40625 -39.0625 Z M 52.25 -39.0625 C 52.25 -49.769531 50.507812 -57.984375 47.03125 -63.703125 C 43.550781 -69.421875 38.546875 -72.28125 32.015625 -72.28125 C 25.484375 -72.28125 20.457031 -69.421875 16.9375 -63.703125 C 13.414062 -57.984375 11.65625 -49.769531 11.65625 -39.0625 C 11.65625 -28.425781 13.414062 -20.226562 16.9375 -14.46875 C 20.457031 -8.707031 25.484375 -5.828125 32.015625 -5.828125 C 38.546875 -5.828125 43.550781 -8.707031 47.03125 -14.46875 C 50.507812 -20.226562 52.25 -28.425781 52.25 -39.0625 Z M 52.25 -39.0625 "/></g></g></g><g fill="#c1ff72" fill-opacity="1"><g transform="translate(691.349227, 112.087437)"><g><path d="M 5.28125 -18.921875 L 5.390625 -55.015625 L 5.390625 -78.109375 L 13.640625 -78.109375 L 13.53125 -20.140625 C 13.53125 -16.316406 14.847656 -13.304688 17.484375 -11.109375 C 20.128906 -8.910156 23.6875 -7.8125 28.15625 -7.8125 L 46.75 -7.703125 L 46.859375 -78.109375 L 55.125 -78.109375 L 55.015625 0 L 26.625 0 C 22.445312 0 18.757812 -0.804688 15.5625 -2.421875 C 12.375 -4.035156 9.863281 -6.269531 8.03125 -9.125 C 6.195312 -11.988281 5.28125 -15.253906 5.28125 -18.921875 Z M 5.28125 -18.921875 "/></g></g></g><g fill="#c1ff72" fill-opacity="1"><g transform="translate(753.171032, 112.087437)"><g><path d="M 7.8125 0 L 7.8125 -78.109375 L 58.09375 -78.109375 L 58.203125 0 L 49.953125 0 L 49.84375 -70.40625 L 16.0625 -70.40625 L 16.0625 0 Z M 7.8125 0 "/></g></g></g><g fill="#c1ff72" fill-opacity="1"><g transform="translate(814.992837, 112.087437)"><g><path d="M 37.078125 0 L 28.15625 0 L 28.15625 -70.40625 L 2.859375 -70.40625 L 2.859375 -78.109375 L 63.03125 -78.109375 L 63.03125 -70.40625 L 37.078125 -70.40625 Z M 37.078125 0 "/></g></g></g><g fill="#c1ff72" fill-opacity="1"><g transform="translate(876.814641, 112.087437)"><g><path d="M 37.515625 0 L 28.609375 0 L 28.609375 -35.96875 L 3.515625 -78.109375 L 13.421875 -78.109375 L 33 -43.671875 L 52.59375 -78.109375 L 62.484375 -78.109375 L 37.515625 -36.1875 Z M 37.515625 0 "/></g></g></g><g fill="#c1ff72" fill-opacity="1"><g transform="translate(938.636446, 112.087437)"><g/></g></g><g fill="#c1ff72" fill-opacity="1"><g transform="translate(1000.45825, 112.087437)"><g><path d="M 36.859375 0 L 29.15625 0 L 29.15625 -0.109375 L 28.71875 0 L 1.65625 -78.109375 L 11.21875 -78.109375 L 33 -12.65625 L 54.78125 -78.109375 L 64.359375 -78.109375 L 37.296875 0 L 36.859375 -0.109375 Z M 36.859375 0 "/></g></g></g><g fill="#c1ff72" fill-opacity="1"><g transform="translate(1062.280055, 112.087437)"><g><path d="M 10.015625 0 L 10.015625 -78.109375 L 58.3125 -78.109375 L 58.3125 -70.40625 L 18.265625 -70.40625 L 18.265625 -45.21875 L 56.4375 -45.21875 L 56.4375 -36.96875 L 18.265625 -36.96875 L 18.265625 -7.703125 L 58.3125 -7.703125 L 58.3125 0 Z M 10.015625 0 "/></g></g></g><g fill="#c1ff72" fill-opacity="1"><g transform="translate(1124.10186, 112.087437)"><g><path d="M 7.8125 0 L 7.8125 -78.109375 L 58.09375 -78.109375 L 58.203125 0 L 49.953125 0 L 49.84375 -70.40625 L 16.0625 -70.40625 L 16.0625 0 Z M 7.8125 0 "/></g></g></g><g fill="#c1ff72" fill-opacity="1"><g transform="translate(1185.923664, 112.087437)"><g><path d="M 29.8125 0 L 9.125 0 L 9.125 -78.109375 L 29.8125 -78.109375 C 41.101562 -78.109375 49.332031 -74.988281 54.5 -68.75 C 59.675781 -62.519531 62.265625 -52.625 62.265625 -39.0625 C 62.265625 -25.488281 59.675781 -15.582031 54.5 -9.34375 C 49.332031 -3.113281 41.101562 0 29.8125 0 Z M 17.375 -69.859375 L 17.375 -8.25 L 29.8125 -8.25 C 38.25 -8.25 44.390625 -10.707031 48.234375 -15.625 C 52.085938 -20.539062 54.015625 -28.351562 54.015625 -39.0625 C 54.015625 -49.769531 52.085938 -57.578125 48.234375 -62.484375 C 44.390625 -67.398438 38.25 -69.859375 29.8125 -69.859375 Z M 17.375 -69.859375 "/></g></g></g><g fill="#c1ff72" fill-opacity="1"><g transform="translate(1247.745469, 112.087437)"><g><path d="M 59.515625 0 L 6.484375 0 L 6.484375 -7.703125 L 28.5 -7.703125 L 28.5 -70.40625 L 6.484375 -70.40625 L 6.484375 -78.109375 L 59.515625 -78.109375 L 59.515625 -70.40625 L 36.75 -70.40625 L 36.75 -7.703125 L 59.515625 -7.703125 Z M 59.515625 0 "/></g></g></g><g fill="#c1ff72" fill-opacity="1"><g transform="translate(1309.567274, 112.087437)"><g><path d="M 7.8125 0 L 7.8125 -78.109375 L 58.09375 -78.109375 L 58.203125 0 L 49.953125 0 L 49.84375 -70.40625 L 16.0625 -70.40625 L 16.0625 0 Z M 7.8125 0 "/></g></g></g><g fill="#c1ff72" fill-opacity="1"><g transform="translate(1371.389078, 112.087437)"><g><path d="M 50.828125 -52.703125 C 50.242188 -58.785156 48.207031 -63.601562 44.71875 -67.15625 C 41.238281 -70.71875 36.785156 -72.5 31.359375 -72.5 C 24.460938 -72.5 19.160156 -69.617188 15.453125 -63.859375 C 11.753906 -58.109375 9.90625 -49.878906 9.90625 -39.171875 C 9.90625 -28.535156 11.847656 -20.316406 15.734375 -14.515625 C 19.617188 -8.722656 25.117188 -5.828125 32.234375 -5.828125 C 37.953125 -5.828125 42.476562 -8.210938 45.8125 -12.984375 C 49.15625 -17.753906 50.828125 -24.242188 50.828125 -32.453125 L 50.828125 -33.78125 L 28.390625 -33.78125 L 28.390625 -41.46875 L 58.09375 -41.46875 L 58.09375 1.4375 L 50.390625 1.4375 L 50.390625 -0.875 L 50.5 -7.59375 C 48.664062 -4.65625 45.988281 -2.320312 42.46875 -0.59375 C 38.945312 1.125 35.242188 1.945312 31.359375 1.875 C 21.816406 1.800781 14.476562 -1.789062 9.34375 -8.90625 C 4.21875 -16.019531 1.65625 -26.109375 1.65625 -39.171875 C 1.65625 -52.296875 4.21875 -62.394531 9.34375 -69.46875 C 14.476562 -76.550781 21.816406 -80.128906 31.359375 -80.203125 C 39.128906 -80.273438 45.359375 -77.925781 50.046875 -73.15625 C 54.742188 -68.394531 57.425781 -61.578125 58.09375 -52.703125 Z M 50.828125 -52.703125 "/></g></g></g><g transform="matrix(1, 0, 0, 1, 9, 5)"><g clip-path="url(#bb7f874692)"><g fill="#c1ff72" fill-opacity="1"><g transform="translate(0.784248, 52.520996)"><g><path d="M 7.25 -0.265625 L 3.875 -0.265625 L 3.875 -32 L 16.40625 -32 C 19.257812 -32 21.457031 -31.253906 23 -29.765625 C 24.550781 -28.273438 25.328125 -26.070312 25.328125 -23.15625 C 25.328125 -20.394531 24.550781 -18.265625 23 -16.765625 C 21.457031 -15.265625 19.257812 -14.515625 16.40625 -14.515625 L 7.25 -14.515625 Z M 7.25 -28.84375 L 7.25 -17.671875 L 16.40625 -17.671875 C 18.238281 -17.640625 19.617188 -18.101562 20.546875 -19.0625 C 21.484375 -20.019531 21.953125 -21.382812 21.953125 -23.15625 C 21.953125 -25.050781 21.46875 -26.472656 20.5 -27.421875 C 19.539062 -28.367188 18.175781 -28.84375 16.40625 -28.84375 Z M 7.25 -28.84375 "/></g></g></g><g fill="#c1ff72" fill-opacity="1"><g transform="translate(26.111105, 52.520996)"><g><path d="M 25.328125 0 L 21 0 L 12.984375 -14.515625 L 6.84375 -14.515625 L 6.84375 0 L 3.46875 0 L 3.46875 -32 L 15.546875 -32 C 18.398438 -32 20.597656 -31.238281 22.140625 -29.71875 C 23.691406 -28.195312 24.46875 -26.007812 24.46875 -23.15625 C 24.46875 -20.695312 23.84375 -18.726562 22.59375 -17.25 C 21.351562 -15.78125 19.578125 -14.894531 17.265625 -14.59375 Z M 6.84375 -28.84375 L 6.84375 -17.671875 L 15.546875 -17.671875 C 17.378906 -17.671875 18.773438 -18.140625 19.734375 -19.078125 C 20.691406 -20.023438 21.144531 -21.382812 21.09375 -23.15625 C 21.09375 -24.988281 20.609375 -26.394531 19.640625 -27.375 C 18.679688 -28.351562 17.316406 -28.84375 15.546875 -28.84375 Z M 6.84375 -28.84375 "/></g></g></g><g fill="#c1ff72" fill-opacity="1"><g transform="translate(51.437961, 52.520996)"><g><path d="M 1.390625 -16 C 1.390625 -21.375 2.40625 -25.503906 4.4375 -28.390625 C 6.46875 -31.273438 9.359375 -32.734375 13.109375 -32.765625 C 16.867188 -32.796875 19.753906 -31.359375 21.765625 -28.453125 C 23.773438 -25.554688 24.78125 -21.40625 24.78125 -16 C 24.78125 -10.59375 23.773438 -6.4375 21.765625 -3.53125 C 19.753906 -0.632812 16.867188 0.796875 13.109375 0.765625 C 9.359375 0.734375 6.46875 -0.726562 4.4375 -3.625 C 2.40625 -6.519531 1.390625 -10.644531 1.390625 -16 Z M 21.40625 -16 C 21.40625 -20.382812 20.691406 -23.75 19.265625 -26.09375 C 17.835938 -28.4375 15.785156 -29.609375 13.109375 -29.609375 C 10.441406 -29.609375 8.382812 -28.4375 6.9375 -26.09375 C 5.5 -23.75 4.78125 -20.382812 4.78125 -16 C 4.78125 -11.644531 5.5 -8.285156 6.9375 -5.921875 C 8.382812 -3.566406 10.441406 -2.390625 13.109375 -2.390625 C 15.785156 -2.390625 17.835938 -3.566406 19.265625 -5.921875 C 20.691406 -8.285156 21.40625 -11.644531 21.40625 -16 Z M 21.40625 -16 "/></g></g></g><g fill="#c1ff72" fill-opacity="1"><g transform="translate(76.764818, 52.520996)"><g><path d="M 9.953125 -32 L 21.265625 -32 L 21.265625 -7.203125 C 21.265625 -4.472656 20.515625 -2.5 19.015625 -1.28125 C 17.515625 -0.0625 15.351562 0.546875 12.53125 0.546875 L 1.625 0.546875 L 1.625 -2.609375 L 11.890625 -2.609375 C 13.515625 -2.609375 14.753906 -2.78125 15.609375 -3.125 C 16.472656 -3.476562 17.066406 -4.019531 17.390625 -4.75 C 17.722656 -5.488281 17.890625 -6.457031 17.890625 -7.65625 L 17.890625 -28.84375 L 9.953125 -28.84375 Z M 9.953125 -32 "/></g></g></g><g fill="#c1ff72" fill-opacity="1"><g transform="translate(102.091674, 52.520996)"><g><path d="M 4.09375 0 L 4.09375 -32 L 23.890625 -32 L 23.890625 -28.84375 L 7.484375 -28.84375 L 7.484375 -18.515625 L 23.109375 -18.515625 L 23.109375 -15.140625 L 7.484375 -15.140625 L 7.484375 -3.15625 L 23.890625 -3.15625 L 23.890625 0 Z M 4.09375 0 "/></g></g></g><g fill="#c1ff72" fill-opacity="1"><g transform="translate(127.418531, 52.520996)"><g><path d="M 13.96875 -2.390625 C 17.90625 -2.390625 20.25 -5.078125 21 -10.453125 L 24.375 -10.453125 C 23.445312 -2.941406 19.976562 0.796875 13.96875 0.765625 C 10.21875 0.734375 7.316406 -0.734375 5.265625 -3.640625 C 3.222656 -6.554688 2.203125 -10.691406 2.203125 -16.046875 C 2.203125 -21.421875 3.207031 -25.5625 5.21875 -28.46875 C 7.238281 -31.382812 10.109375 -32.84375 13.828125 -32.84375 C 19.960938 -32.84375 23.523438 -29.085938 24.515625 -21.578125 L 21.140625 -21.578125 C 20.472656 -26.992188 17.992188 -29.703125 13.703125 -29.703125 C 11.171875 -29.703125 9.222656 -28.519531 7.859375 -26.15625 C 6.492188 -23.800781 5.8125 -20.429688 5.8125 -16.046875 C 5.8125 -11.691406 6.515625 -8.328125 7.921875 -5.953125 C 9.335938 -3.578125 11.351562 -2.390625 13.96875 -2.390625 Z M 13.96875 -2.390625 "/></g></g></g><g fill="#c1ff72" fill-opacity="1"><g transform="translate(152.745387, 52.520996)"><g><path d="M 15.1875 0 L 11.53125 0 L 11.53125 -28.84375 L 1.171875 -28.84375 L 1.171875 -32 L 25.828125 -32 L 25.828125 -28.84375 L 15.1875 -28.84375 Z M 15.1875 0 "/></g></g></g><g fill="#c1ff72" fill-opacity="1"><g transform="translate(178.072235, 52.520996)"><g/></g></g><g fill="#c1ff72" fill-opacity="1"><g transform="translate(203.399101, 52.520996)"><g><path d="M 13.015625 -29.375 C 11.097656 -29.34375 9.515625 -28.753906 8.265625 -27.609375 C 7.023438 -26.472656 6.40625 -25.019531 6.40625 -23.25 L 3.25 -23.25 C 3.25 -25.113281 3.664062 -26.757812 4.5 -28.1875 C 5.34375 -29.613281 6.5 -30.734375 7.96875 -31.546875 C 9.445312 -32.359375 11.128906 -32.765625 13.015625 -32.765625 C 14.972656 -32.765625 16.703125 -32.398438 18.203125 -31.671875 C 19.703125 -30.953125 20.875 -29.945312 21.71875 -28.65625 C 22.5625 -27.363281 22.96875 -25.878906 22.9375 -24.203125 C 22.9375 -22.722656 22.566406 -21.351562 21.828125 -20.09375 C 21.097656 -18.832031 20.113281 -17.796875 18.875 -16.984375 C 20.4375 -16.203125 21.691406 -15.101562 22.640625 -13.6875 C 23.585938 -12.28125 24.0625 -10.707031 24.0625 -8.96875 C 24.0625 -7.070312 23.601562 -5.394531 22.6875 -3.9375 C 21.769531 -2.476562 20.5 -1.335938 18.875 -0.515625 C 17.257812 0.304688 15.398438 0.71875 13.296875 0.71875 C 11.222656 0.71875 9.359375 0.257812 7.703125 -0.65625 C 6.054688 -1.570312 4.765625 -2.8125 3.828125 -4.375 C 2.898438 -5.9375 2.46875 -7.660156 2.53125 -9.546875 L 5.71875 -9.546875 C 5.71875 -7.453125 6.398438 -5.78125 7.765625 -4.53125 C 9.140625 -3.28125 10.984375 -2.65625 13.296875 -2.65625 C 15.578125 -2.65625 17.378906 -3.222656 18.703125 -4.359375 C 20.023438 -5.503906 20.6875 -7.039062 20.6875 -8.96875 C 20.6875 -10.164062 20.367188 -11.242188 19.734375 -12.203125 C 19.109375 -13.171875 18.253906 -13.9375 17.171875 -14.5 C 16.085938 -15.070312 14.867188 -15.359375 13.515625 -15.359375 L 10.3125 -15.359375 L 10.3125 -18.390625 L 13.25 -18.390625 C 14.414062 -18.390625 15.476562 -18.648438 16.4375 -19.171875 C 17.40625 -19.703125 18.164062 -20.410156 18.71875 -21.296875 C 19.28125 -22.179688 19.5625 -23.148438 19.5625 -24.203125 C 19.5625 -25.734375 18.953125 -26.976562 17.734375 -27.9375 C 16.515625 -28.894531 14.941406 -29.375 13.015625 -29.375 Z M 13.015625 -29.375 "/></g></g></g></g></g><g fill="#9d7ad9" fill-opacity="1"><g transform="translate(555.717461, 764.999982)"><g><path d="M 35.703125 -31.25 C 39.171875 -30.632812 41.910156 -28.96875 43.921875 -26.25 C 45.941406 -23.53125 46.953125 -20.1875 46.953125 -16.21875 C 46.953125 -11.226562 45.21875 -7.273438 41.75 -4.359375 C 38.28125 -1.453125 33.546875 0 27.546875 0 L 6.546875 0 L 6.546875 -59.640625 L 25.78125 -59.640625 C 29.425781 -59.640625 32.617188 -58.992188 35.359375 -57.703125 C 38.109375 -56.421875 40.265625 -54.628906 41.828125 -52.328125 C 43.398438 -50.035156 44.1875 -47.378906 44.1875 -44.359375 C 44.1875 -41.109375 43.382812 -38.25 41.78125 -35.78125 C 40.1875 -33.320312 38.160156 -31.8125 35.703125 -31.25 Z M 12.859375 -53.59375 L 12.859375 -34.109375 L 26.96875 -34.109375 C 30.101562 -34.109375 32.675781 -34.960938 34.6875 -36.671875 C 36.707031 -38.378906 37.71875 -40.601562 37.71875 -43.34375 C 37.71875 -46.363281 36.707031 -48.828125 34.6875 -50.734375 C 32.675781 -52.640625 30.101562 -53.59375 26.96875 -53.59375 Z M 12.859375 -28.140625 L 12.859375 -5.875 L 28.8125 -5.875 C 32.445312 -5.875 35.328125 -6.867188 37.453125 -8.859375 C 39.585938 -10.847656 40.65625 -13.550781 40.65625 -16.96875 C 40.65625 -20.4375 39.503906 -23.164062 37.203125 -25.15625 C 34.910156 -27.144531 31.773438 -28.140625 27.796875 -28.140625 Z M 12.859375 -28.140625 "/></g></g></g><g fill="#9d7ad9" fill-opacity="1"><g transform="translate(602.925459, 764.999982)"><g><path d="M 4.03125 -14.453125 L 4.109375 -42 L 4.109375 -59.640625 L 10.421875 -59.640625 L 10.328125 -15.375 C 10.328125 -12.457031 11.332031 -10.160156 13.34375 -8.484375 C 15.363281 -6.804688 18.082031 -5.96875 21.5 -5.96875 L 35.703125 -5.875 L 35.78125 -59.640625 L 42.078125 -59.640625 L 42 0 L 20.328125 0 C 17.140625 0 14.328125 -0.613281 11.890625 -1.84375 C 9.453125 -3.082031 7.53125 -4.789062 6.125 -6.96875 C 4.726562 -9.15625 4.03125 -11.648438 4.03125 -14.453125 Z M 4.03125 -14.453125 "/></g></g></g><g fill="#9d7ad9" fill-opacity="1"><g transform="translate(650.133457, 764.999982)"><g><path d="M 45.4375 0 L 4.953125 0 L 4.953125 -5.875 L 21.75 -5.875 L 21.75 -53.765625 L 4.953125 -53.765625 L 4.953125 -59.640625 L 45.4375 -59.640625 L 45.4375 -53.765625 L 28.0625 -53.765625 L 28.0625 -5.875 L 45.4375 -5.875 Z M 45.4375 0 "/></g></g></g><g fill="#9d7ad9" fill-opacity="1"><g transform="translate(697.341454, 764.999982)"><g><path d="M 45.703125 0 L 9.328125 0 L 9.234375 -59.640625 L 15.546875 -59.640625 L 15.546875 -5.875 L 45.703125 -5.875 Z M 45.703125 0 "/></g></g></g><g fill="#9d7ad9" fill-opacity="1"><g transform="translate(744.549452, 764.999982)"><g><path d="M 28.3125 0 L 21.5 0 L 21.5 -53.765625 L 2.1875 -53.765625 L 2.1875 -59.640625 L 48.125 -59.640625 L 48.125 -53.765625 L 28.3125 -53.765625 Z M 28.3125 0 "/></g></g></g><g fill="#9d7ad9" fill-opacity="1"><g transform="translate(838.965447, 764.999982)"><g><path d="M 14.609375 -29.8125 L 14.609375 0 L 8.3125 0 L 8.3125 -59.640625 L 44.515625 -59.640625 L 44.515625 -53.765625 L 14.609375 -53.765625 L 14.609375 -35.703125 L 43.09375 -35.703125 L 43.09375 -29.8125 Z M 14.609375 -29.8125 "/></g></g></g><g fill="#9d7ad9" fill-opacity="1"><g transform="translate(886.173445, 764.999982)"><g><path d="M 47.203125 0 L 39.140625 0 L 24.1875 -27.046875 L 12.765625 -27.046875 L 12.765625 0 L 6.46875 0 L 6.46875 -59.640625 L 28.984375 -59.640625 C 34.296875 -59.640625 38.394531 -58.222656 41.28125 -55.390625 C 44.164062 -52.566406 45.609375 -48.492188 45.609375 -43.171875 C 45.609375 -38.578125 44.445312 -34.910156 42.125 -32.171875 C 39.800781 -29.429688 36.484375 -27.78125 32.171875 -27.21875 Z M 12.765625 -53.765625 L 12.765625 -32.921875 L 28.984375 -32.921875 C 32.398438 -32.921875 35.003906 -33.800781 36.796875 -35.5625 C 38.585938 -37.332031 39.425781 -39.867188 39.3125 -43.171875 C 39.3125 -46.585938 38.414062 -49.207031 36.625 -51.03125 C 34.832031 -52.851562 32.285156 -53.765625 28.984375 -53.765625 Z M 12.765625 -53.765625 "/></g></g></g><g fill="#9d7ad9" fill-opacity="1"><g transform="translate(933.381442, 764.999982)"><g><path d="M 2.609375 -29.8125 C 2.609375 -39.84375 4.492188 -47.546875 8.265625 -52.921875 C 12.046875 -58.296875 17.4375 -61.007812 24.4375 -61.0625 C 31.4375 -61.125 36.8125 -58.453125 40.5625 -53.046875 C 44.320312 -47.640625 46.203125 -39.894531 46.203125 -29.8125 C 46.203125 -19.738281 44.320312 -12 40.5625 -6.59375 C 36.8125 -1.1875 31.4375 1.484375 24.4375 1.421875 C 17.4375 1.367188 12.046875 -1.359375 8.265625 -6.765625 C 4.492188 -12.171875 2.609375 -19.851562 2.609375 -29.8125 Z M 39.90625 -29.8125 C 39.90625 -37.988281 38.570312 -44.257812 35.90625 -48.625 C 33.25 -53 29.425781 -55.1875 24.4375 -55.1875 C 19.457031 -55.1875 15.625 -53 12.9375 -48.625 C 10.25 -44.257812 8.90625 -37.988281 8.90625 -29.8125 C 8.90625 -21.695312 10.25 -15.441406 12.9375 -11.046875 C 15.625 -6.648438 19.457031 -4.453125 24.4375 -4.453125 C 29.425781 -4.453125 33.25 -6.648438 35.90625 -11.046875 C 38.570312 -15.441406 39.90625 -21.695312 39.90625 -29.8125 Z M 39.90625 -29.8125 "/></g></g></g><g fill="#9d7ad9" fill-opacity="1"><g transform="translate(980.589417, 764.999982)"><g><path d="M 4.953125 0 L 4.953125 -59.640625 L 45.359375 -59.640625 L 45.4375 0 L 39.140625 0 L 39.0625 -53.765625 L 28.3125 -53.765625 L 28.3125 0 L 22.015625 0 L 22.015625 -53.765625 L 11.25 -53.765625 L 11.25 0 Z M 4.953125 0 "/></g></g></g><g fill="#9d7ad9" fill-opacity="1"><g transform="translate(1075.005459, 764.999982)"><g><path d="M 24.953125 0.75 C 20.640625 0.75 16.914062 -0.113281 13.78125 -1.84375 C 10.644531 -3.582031 8.222656 -6.046875 6.515625 -9.234375 C 4.804688 -12.429688 3.953125 -16.1875 3.953125 -20.5 L 10.25 -20.5 C 10.25 -17.582031 10.878906 -14.972656 12.140625 -12.671875 C 13.398438 -10.378906 15.117188 -8.578125 17.296875 -7.265625 C 19.484375 -5.953125 22.003906 -5.238281 24.859375 -5.125 C 27.710938 -5.070312 30.257812 -5.546875 32.5 -6.546875 C 34.75 -7.554688 36.488281 -8.972656 37.71875 -10.796875 C 38.945312 -12.617188 39.476562 -14.675781 39.3125 -16.96875 C 39.144531 -21.5625 35.445312 -25.144531 28.21875 -27.71875 L 19.3125 -30.90625 C 14.78125 -32.53125 11.4375 -34.390625 9.28125 -36.484375 C 7.125 -38.585938 5.9375 -41.097656 5.71875 -44.015625 C 5.488281 -47.316406 6.171875 -50.269531 7.765625 -52.875 C 9.359375 -55.476562 11.640625 -57.519531 14.609375 -59 C 17.578125 -60.488281 20.941406 -61.175781 24.703125 -61.0625 C 30.523438 -60.894531 35.238281 -59.171875 38.84375 -55.890625 C 42.457031 -52.617188 44.40625 -48.269531 44.6875 -42.84375 L 38.390625 -42.84375 C 38.160156 -46.363281 36.757812 -49.285156 34.1875 -51.609375 C 31.613281 -53.941406 28.421875 -55.132812 24.609375 -55.1875 C 22.085938 -55.300781 19.859375 -54.910156 17.921875 -54.015625 C 15.992188 -53.117188 14.5 -51.84375 13.4375 -50.1875 C 12.375 -48.539062 11.898438 -46.679688 12.015625 -44.609375 C 12.128906 -43.035156 12.96875 -41.644531 14.53125 -40.4375 C 16.101562 -39.238281 18.539062 -37.992188 21.84375 -36.703125 L 31 -33.265625 C 40.289062 -29.734375 45.101562 -24.609375 45.4375 -17.890625 C 45.613281 -14.421875 44.800781 -11.269531 43 -8.4375 C 41.207031 -5.613281 38.742188 -3.375 35.609375 -1.71875 C 32.472656 -0.0703125 28.921875 0.75 24.953125 0.75 Z M 24.953125 0.75 "/></g></g></g><g fill="#9d7ad9" fill-opacity="1"><g transform="translate(1122.213434, 764.999982)"><g><path d="M 26.046875 -4.453125 C 33.378906 -4.453125 37.742188 -9.460938 39.140625 -19.484375 L 45.4375 -19.484375 C 43.707031 -5.484375 37.242188 1.484375 26.046875 1.421875 C 19.046875 1.367188 13.640625 -1.367188 9.828125 -6.796875 C 6.015625 -12.234375 4.109375 -19.9375 4.109375 -29.90625 C 4.109375 -39.925781 5.984375 -47.648438 9.734375 -53.078125 C 13.492188 -58.515625 18.84375 -61.234375 25.78125 -61.234375 C 37.207031 -61.234375 43.847656 -54.234375 45.703125 -40.234375 L 39.390625 -40.234375 C 38.160156 -50.316406 33.539062 -55.359375 25.53125 -55.359375 C 20.832031 -55.359375 17.207031 -53.160156 14.65625 -48.765625 C 12.113281 -44.367188 10.84375 -38.082031 10.84375 -29.90625 C 10.84375 -21.78125 12.15625 -15.503906 14.78125 -11.078125 C 17.414062 -6.660156 21.171875 -4.453125 26.046875 -4.453125 Z M 26.046875 -4.453125 "/></g></g></g><g fill="#9d7ad9" fill-opacity="1"><g transform="translate(1169.421409, 764.999982)"><g><path d="M 47.203125 0 L 39.140625 0 L 24.1875 -27.046875 L 12.765625 -27.046875 L 12.765625 0 L 6.46875 0 L 6.46875 -59.640625 L 28.984375 -59.640625 C 34.296875 -59.640625 38.394531 -58.222656 41.28125 -55.390625 C 44.164062 -52.566406 45.609375 -48.492188 45.609375 -43.171875 C 45.609375 -38.578125 44.445312 -34.910156 42.125 -32.171875 C 39.800781 -29.429688 36.484375 -27.78125 32.171875 -27.21875 Z M 12.765625 -53.765625 L 12.765625 -32.921875 L 28.984375 -32.921875 C 32.398438 -32.921875 35.003906 -33.800781 36.796875 -35.5625 C 38.585938 -37.332031 39.425781 -39.867188 39.3125 -43.171875 C 39.3125 -46.585938 38.414062 -49.207031 36.625 -51.03125 C 34.832031 -52.851562 32.285156 -53.765625 28.984375 -53.765625 Z M 12.765625 -53.765625 "/></g></g></g><g fill="#9d7ad9" fill-opacity="1"><g transform="translate(1216.62943, 764.999982)"><g><path d="M 42.5 0 L 37.375 -15.875 L 13.015625 -15.875 L 7.890625 0 L 1.59375 0 L 21.171875 -59.640625 L 29.234375 -59.640625 L 48.796875 0 Z M 25.203125 -53.84375 L 14.875 -21.75 L 35.53125 -21.75 Z M 25.203125 -53.84375 "/></g></g></g><g fill="#9d7ad9" fill-opacity="1"><g transform="translate(1263.837451, 764.999982)"><g><path d="M 28.3125 0 L 21.5 0 L 21.5 -53.765625 L 2.1875 -53.765625 L 2.1875 -59.640625 L 48.125 -59.640625 L 48.125 -53.765625 L 28.3125 -53.765625 Z M 28.3125 0 "/></g></g></g><g fill="#9d7ad9" fill-opacity="1"><g transform="translate(1311.045426, 764.999982)"><g><path d="M 26.046875 -4.453125 C 33.378906 -4.453125 37.742188 -9.460938 39.140625 -19.484375 L 45.4375 -19.484375 C 43.707031 -5.484375 37.242188 1.484375 26.046875 1.421875 C 19.046875 1.367188 13.640625 -1.367188 9.828125 -6.796875 C 6.015625 -12.234375 4.109375 -19.9375 4.109375 -29.90625 C 4.109375 -39.925781 5.984375 -47.648438 9.734375 -53.078125 C 13.492188 -58.515625 18.84375 -61.234375 25.78125 -61.234375 C 37.207031 -61.234375 43.847656 -54.234375 45.703125 -40.234375 L 39.390625 -40.234375 C 38.160156 -50.316406 33.539062 -55.359375 25.53125 -55.359375 C 20.832031 -55.359375 17.207031 -53.160156 14.65625 -48.765625 C 12.113281 -44.367188 10.84375 -38.082031 10.84375 -29.90625 C 10.84375 -21.78125 12.15625 -15.503906 14.78125 -11.078125 C 17.414062 -6.660156 21.171875 -4.453125 26.046875 -4.453125 Z M 26.046875 -4.453125 "/></g></g></g><g fill="#9d7ad9" fill-opacity="1"><g transform="translate(1358.253401, 764.999982)"><g><path d="M 38.046875 -59.640625 L 44.359375 -59.640625 L 44.4375 0 L 38.140625 0 L 38.140625 -29.8125 L 12.265625 -29.8125 L 12.265625 0 L 5.96875 0 L 5.96875 -59.640625 L 12.265625 -59.640625 L 12.265625 -35.703125 L 38.046875 -35.703125 Z M 38.046875 -59.640625 "/></g></g></g><g fill="#9d7ad9" fill-opacity="1"><g transform="translate(1405.461377, 764.999982)"><g><path d="M 4.203125 0 L 4.203125 -9.328125 L 13.53125 -9.328125 L 13.53125 0 Z M 4.203125 0 "/></g></g></g></svg>